<?xml version="1.0" encoding="UTF-8" standalone="no"?>
<!-- Created with Inkscape (http://www.inkscape.org/) -->

<svg
   xmlns:dc="http://purl.org/dc/elements/1.1/"
   xmlns:cc="http://creativecommons.org/ns#"
   xmlns:rdf="http://www.w3.org/1999/02/22-rdf-syntax-ns#"
   xmlns:svg="http://www.w3.org/2000/svg"
   xmlns="http://www.w3.org/2000/svg"
   xmlns:sodipodi="http://sodipodi.sourceforge.net/DTD/sodipodi-0.dtd"
   xmlns:inkscape="http://www.inkscape.org/namespaces/inkscape"
   width="368.20197mm"
   height="115.32024mm"
   viewBox="0 0 1304.6526 408.61501"
   id="svg7936"
   version="1.1"
   inkscape:version="0.91 r13725"
   sodipodi:docname="Logo_GCPDS.svg">
  <defs
     id="defs7938" />
  <sodipodi:namedview
     id="base"
     pagecolor="#ffffff"
     bordercolor="#666666"
     borderopacity="1.0"
     inkscape:pageopacity="0.0"
     inkscape:pageshadow="2"
     inkscape:zoom="0.7"
     inkscape:cx="442.65483"
     inkscape:cy="190.30349"
     inkscape:document-units="px"
     inkscape:current-layer="layer1"
     showgrid="false"
     fit-margin-top="0"
     fit-margin-left="0"
     fit-margin-right="0"
     fit-margin-bottom="0"
     inkscape:window-width="1680"
     inkscape:window-height="987"
     inkscape:window-x="-8"
     inkscape:window-y="-8"
     inkscape:window-maximized="1" />
  <metadata
     id="metadata7941">
    <rdf:RDF>
      <cc:Work
         rdf:about="">
        <dc:format>image/svg+xml</dc:format>
        <dc:type
           rdf:resource="http://purl.org/dc/dcmitype/StillImage" />
        <dc:title></dc:title>
      </cc:Work>
    </rdf:RDF>
  </metadata>
  <g
     inkscape:label="Capa 1"
     inkscape:groupmode="layer"
     id="layer1"
     transform="translate(269.46941,-199.48328)">
    <g
       id="g7380"
       transform="matrix(1.7789496,0,0,-1.7789496,-28743.628,5460.5786)">
      <circle
         style="opacity:1;fill:none;fill-opacity:1;stroke:#1363a6;stroke-width:2.50000024;stroke-linecap:round;stroke-linejoin:miter;stroke-miterlimit:4;stroke-dasharray:none;stroke-dashoffset:0;stroke-opacity:1"
         id="path7062-5-5"
         cx="2556.9458"
         cy="1638.269"
         r="34.52673"
         transform="matrix(1.7371214,0,0,-1.7371215,11626.587,5643.4888)" />
      <ellipse
         style="opacity:1;fill:none;fill-opacity:1;stroke:#1363a6;stroke-width:2.50000024;stroke-linecap:round;stroke-linejoin:miter;stroke-miterlimit:4;stroke-dasharray:none;stroke-dashoffset:0;stroke-opacity:1"
         id="path7062-6-0-7"
         cx="2560.1958"
         cy="1643.394"
         rx="26.678501"
         ry="26.678505"
         transform="matrix(1.7371214,0,0,-1.7371215,11626.587,5643.4888)" />
      <ellipse
         style="opacity:1;fill:none;fill-opacity:1;stroke:#1363a6;stroke-width:2.50000024;stroke-linecap:round;stroke-linejoin:miter;stroke-miterlimit:4;stroke-dasharray:none;stroke-dashoffset:0;stroke-opacity:1"
         id="path7062-6-8-8-8"
         cx="2572.782"
         cy="1658.3645"
         rx="6.989224"
         ry="6.9892254"
         transform="matrix(1.7371214,0,0,-1.7371215,11626.587,5643.4888)" />
      <path
         id="rect7120-7-7"
         d="m 2937.0633,1552.7969 2.2891,0 c 1.5235,0 2.75,1.2265 2.75,2.75 l 0,118.9578 c 0,1.5235 -1.2265,2.75 -2.75,2.75 l -139.1103,0 c -1.5235,0 -2.75,-1.2265 -2.75,-2.75 l 0,-2.5195"
         style="opacity:1;fill:none;fill-opacity:1;stroke:#1363a6;stroke-width:2.50000024;stroke-linecap:butt;stroke-linejoin:round;stroke-miterlimit:4;stroke-dasharray:none;stroke-dashoffset:0;stroke-opacity:1"
         inkscape:connector-curvature="0"
         transform="matrix(1.7371214,0,0,-1.7371215,11626.587,5643.4888)" />
      <path
         id="path7182-5"
         d="m 2792.4539,1567.5258 0,-17.2482 c 0,-1.5235 1.2265,-2.75 2.75,-2.75 l 0,0 139.1103,0 c 1.5235,0 2.75,1.2265 2.75,2.75 l 0,118.9578 c 0,1.5235 -1.2265,2.75 -2.75,2.75 l -139.1103,0 c -1.5235,0 -2.75,-1.2265 -2.75,-2.75 l 0,-5.9902"
         style="opacity:1;fill:none;fill-opacity:1;stroke:#1363a6;stroke-width:2.50000024;stroke-linecap:butt;stroke-linejoin:round;stroke-miterlimit:4;stroke-dasharray:none;stroke-dashoffset:0;stroke-opacity:1"
         inkscape:connector-curvature="0"
         transform="matrix(1.7371214,0,0,-1.7371215,11626.587,5643.4888)" />
      <path
         transform="matrix(1.7371214,0,0,-1.7371215,11626.587,11133.887)"
         id="path7279-6"
         d="m 2772.9727,4798.6152 c -0.4764,0.01 -0.9553,0.1323 -1.168,0.3789 -0.1854,0.215 -0.5426,3.0867 -0.793,6.3809 -0.2492,3.2944 -0.5903,6.9037 -0.7578,8.0215 -0.1692,1.1178 -0.309,2.1257 -0.3125,2.2402 0,0.1148 -0.8636,0.139 -1.9102,0.053 -1.0471,-0.086 -3.616,-0.2049 -5.7109,-0.2637 -2.0937,-0.059 -4.9094,-0.1927 -6.2558,-0.2988 -3.4661,-0.2733 -4.4223,0.057 -7.2344,2.4921 -1.3045,1.1297 -2.5298,2.0528 -2.7227,2.0528 -0.1917,0 -0.9074,-0.2616 -1.5879,-0.5801 -0.8905,-0.4162 -1.4514,-0.9705 -2,-1.9746 -0.8554,-1.5671 -1.522,-1.8012 -3.5996,-1.2637 -1.0057,0.2599 -1.2915,0.5104 -1.6933,1.4746 -0.5458,1.3089 -1.3127,1.6333 -3.2578,1.3828 -1.0627,-0.1369 -1.3667,-0.023 -2.6407,0.9883 -0.7909,0.6286 -1.5159,1.1426 -1.6074,1.1426 -0.092,0 -0.4227,0.4137 -0.7324,0.918 -0.4323,0.7031 -0.6207,0.8192 -0.8067,0.5 -0.4933,-0.8476 -1.2318,-7.3408 -1.6699,-14.6856 -0.2481,-4.1598 -0.5913,-7.8148 -0.7617,-8.1211 -0.3632,-0.6519 -1.7321,-0.7453 -2.5449,-0.1738 -0.449,0.3149 -0.6185,1.2061 -0.9668,5.0469 -0.2314,2.5658 -0.5812,6.016 -0.7735,7.6679 l -0.3535,3.0039 -1.8847,-0.1855 c -2.286,-0.2249 -4.261,0.4766 -5.3047,1.8848 -0.3679,0.4965 -1.0707,1.1781 -1.5606,1.5136 -0.799,0.5461 -0.965,0.5649 -1.5879,0.1914 -0.3822,-0.2294 -1.0587,-0.4971 -1.5019,-0.5957 -0.4807,-0.1068 -1.0586,-0.5892 -1.4317,-1.1953 -0.8629,-1.4062 -1.918,-1.6124 -3.6836,-0.7168 -0.7633,0.3875 -1.522,0.9974 -1.6855,1.3555 -0.255,0.5576 -0.4604,0.6267 -1.4258,0.4785 -0.9285,-0.1427 -1.2587,-0.049 -1.8672,0.5352 -0.4058,0.39 -0.8033,0.8973 -0.8828,1.1269 -0.098,0.2818 -0.6374,0.4281 -1.6621,0.4473 -1.0909,0.02 -1.7961,0.2251 -2.5058,0.7285 -0.7887,0.5606 -1.039,0.6219 -1.2422,0.3047 -0.4824,-0.7496 -1.23,-5.1581 -1.6934,-9.9785 -0.5814,-6.036 -0.6519,-6.3555 -1.5332,-6.9102 -0.8641,-0.5435 -1.8145,-0.3195 -2.4219,0.5703 -0.3172,0.4653 -1.6797,10.2191 -1.6797,12.0235 0,0.049 -0.5287,0.09 -1.1757,0.09 -1.4248,0 -3.7244,0.7894 -5.3731,1.8457 -2.0971,1.344 -2.5302,1.5037 -3.1836,1.168 -0.3275,-0.1682 -1.2324,-1.4266 -2.0078,-2.7949 -0.7771,-1.3682 -1.6859,-2.6282 -2.0215,-2.8008 -1.1899,-0.6114 -2.0137,-0.081 -3.1133,2.0078 -1.1668,2.2153 -1.9476,2.7487 -4.8242,3.291 -0.9608,0.1811 -1.8251,0.4515 -1.9219,0.6016 -0.3914,0.6087 -1.0424,0.2089 -1.3417,-0.8242 -0.1756,-0.6036 -0.6664,-4.2427 -1.0918,-8.086 -0.4243,-3.8432 -0.9107,-7.2344 -1.0782,-7.5351 -0.4035,-0.7234 -1.9346,-0.7161 -2.6933,0.012 -0.7133,0.685 -1.4305,3.7323 -1.9336,8.2148 l -0.377,3.3594 -1.2754,-0.088 c -1.4984,-0.1052 -2.2244,0.216 -3.998,1.7715 -0.7219,0.6332 -1.8091,1.3505 -2.4141,1.5937 l -1.1015,0.4415 -0.9375,-1.0489 c -1.0921,-1.2242 -1.5349,-1.3137 -3.9395,-0.7949 -1.651,0.3562 -1.824,0.4726 -2.2851,1.5254 -0.3541,0.8123 -0.6832,1.1405 -1.1426,1.1426 -0.3541,0.01 -0.9722,0.2407 -1.3711,0.5332 -0.3995,0.2922 -1.2753,0.5612 -1.9453,0.5957 -1.7691,0.091 -2.3248,0.2982 -3.3926,1.2715 -0.5342,0.4874 -1.0384,0.7446 -1.1426,0.582 -0.5135,-0.7982 -1.4283,-7.7269 -1.7109,-12.9512 -0.3506,-6.5188 -0.6527,-7.7318 -2.0078,-8.0586 -1.4841,-0.3578 -1.7798,0.4044 -2.5196,6.5196 -0.3667,3.0319 -0.7287,5.7901 -0.8047,6.1289 -0.1208,0.5418 -0.4276,0.638 -2.5546,0.8086 -2.6349,0.211 -3.9832,0.6441 -6.2012,1.9961 -0.8065,0.4919 -1.6555,0.8058 -1.918,0.7089 -0.2596,-0.096 -0.7564,-0.7999 -1.1035,-1.5664 -0.8054,-1.7777 -1.396,-2.4179 -2.2324,-2.4179 -0.932,0 -1.661,0.8808 -2.0996,2.5371 l -0.375,1.4121 -19.4063,0.1406 -1.1094,2.7676 10.9532,-0.1231 10.334,0.875 0.5468,-0.7461 c 0.3005,-0.4098 0.7855,-1.036 1.0762,-1.3906 l 0.5293,-0.6445 0.5371,0.625 c 1.3816,1.6055 3.0541,1.5835 5.6152,-0.072 2.0367,-1.3166 3.4181,-1.8691 4.6719,-1.8691 0.9395,0 1.0243,0.092 1.5625,1.6816 0.4508,1.3294 0.7408,1.7373 1.3965,1.9551 1.1047,0.3669 2.0095,-0.4104 2.2656,-1.9473 0.2539,-1.528 0.5321,-1.1014 0.9707,1.4981 0.4617,2.7253 1.1008,4.0304 2.2578,4.6054 1.2982,0.6447 2.7446,0.3014 4.0157,-0.955 l 1.0488,-1.0391 2.2266,0.332 c 1.2238,0.1825 2.6604,0.4043 3.1894,0.4942 1.1675,0.1979 1.7872,-0.53 2.1113,-2.4805 0.156,-0.9406 0.3985,-1.349 0.9356,-1.584 0.6171,-0.2702 0.8492,-0.2031 1.5722,0.4629 0.6085,0.56 1.1688,0.7813 1.9805,0.7813 1.506,0 4.6438,-1.4101 6.0899,-2.7364 0.6407,-0.587 1.2864,-1.0683 1.4355,-1.0683 0.1491,0 0.4388,0.5366 0.6426,1.1914 0.3638,1.1678 1.2205,2.0273 2.0195,2.0273 0.2211,0 0.7382,-0.3217 1.1504,-0.7168 0.6194,-0.5958 0.7479,-1.0072 0.752,-2.414 0,-0.9327 0.1378,-1.8954 0.3007,-2.1368 0.228,-0.3394 0.2954,-0.2465 0.2989,0.4043 0.012,1.7586 1.2734,6.0475 2.039,6.9219 1.0541,1.2026 2.4419,1.185 3.9024,-0.047 0.9965,-0.8405 1.2053,-0.8989 2.5742,-0.7246 1.4207,0.1811 1.5571,0.1365 2.9629,-1.0078 0.8099,-0.6595 1.7666,-1.5385 2.1269,-1.9511 l 0.6543,-0.75 0.7559,1.1386 c 1.3281,2.0002 2.9093,3.0391 4.623,3.0391 0.3903,0 1.5138,-0.4586 2.4942,-1.0195 2.271,-1.2977 4.1216,-2.1832 4.5781,-2.1914 0.1952,-0.01 0.5876,0.6604 0.8691,1.4765 0.3334,0.9612 0.7387,1.565 1.1543,1.7129 1.59,0.5647 2.4587,-0.556 2.8243,-3.6367 l 0.207,-1.7539 0.6992,2.7051 c 1.2751,4.9237 2.6222,5.6983 5.8672,3.3711 0.8957,-0.6425 1.2014,-0.7026 2.6602,-0.5274 1.5364,0.1843 1.7005,0.142 2.4316,-0.6152 0.6701,-0.6944 0.8699,-0.7605 1.373,-0.459 1.2815,0.7688 2.4646,0.1545 2.8946,-1.5 0.1191,-0.4557 0.3945,-0.894 0.6133,-0.9746 0.3459,-0.1278 2.1478,0.6295 5.0918,2.1406 1.2503,0.6411 2.477,0.1302 5.0566,-2.1016 3.0407,-2.6298 3.9418,-2.5537 4.4473,0.3731 0.141,0.82 0.4765,1.441 0.9882,1.8281 1.5445,1.1665 2.4485,0.5227 2.8204,-2.0098 0.1508,-1.0199 0.3307,-1.9077 0.4003,-1.9746 0.07,-0.067 0.3502,1.2632 0.6231,2.9571 0.7236,4.4918 1.6764,6.0039 3.7891,6.0039 0.9866,0 1.4431,-0.4119 2.5996,-2.3418 1.1743,-1.9616 3.5863,-2.9599 5.6035,-2.3203 0.9233,0.2926 1.1777,0.2621 1.8535,-0.2227 0.43,-0.3089 0.9316,-0.9885 1.1152,-1.5117 l 0.334,-0.9512 0.7539,0.7774 c 1.3494,1.3889 3.3982,2.1816 5.6387,2.1816 l 2.0078,0 2.4238,-2.2187 2.4239,-2.2168 2.3554,0.1777 c 1.2947,0.098 4.478,0.2402 7.0742,0.3144 2.5969,0.074 4.8822,0.1926 5.0762,0.2637 0.1946,0.071 0.5738,0.8583 0.8438,1.75 0.5279,1.7421 1.2713,2.3878 2.4336,2.1074 0.6988,-0.1684 1.3964,-1.262 1.3964,-2.1914 0,-0.2875 0.097,-0.6172 0.2168,-0.7324 0.1204,-0.1152 0.3965,0.817 0.6153,2.0723 0.4461,2.5609 1.6408,5.1967 2.5722,5.6758 1.0777,0.5541 2.504,0.058 3.877,-1.3497 l 1.2793,-1.3125 2.4355,0 c 2.2359,0 2.5002,-0.064 3.252,-0.7871 0.5785,-0.5552 1.0908,-0.7688 1.7441,-0.7265 0.6005,0.039 1.408,-0.2486 2.291,-0.8164 0.7501,-0.4822 1.8781,-1.2107 2.5079,-1.6192 0.8888,-0.5764 5.2764,-1.8886 6.3535,-1.9004 0.1036,-0.01 0.4231,0.59 0.7109,1.3145 0.6056,1.5223 1.5583,1.9528 2.7149,1.2246 0.738,-0.4643 1.1074,-1.9105 1.1074,-4.3203 0,-1.9056 0.517,-1.5245 0.7363,0.543 0.3748,3.5302 1.0912,5.9619 2.0215,6.8554 0.4692,0.4501 1.0804,0.8184 1.3613,0.8184 0.8319,0 2.089,-0.8557 2.8086,-1.9102 0.6459,-0.9471 0.7507,-0.9864 2.586,-0.9843 1.3015,0.01 2.3334,0.1962 3.2343,0.6093 1.6873,0.7745 3.7419,0.9977 4.9082,0.5332 0.502,-0.1996 1.8242,-1.3395 2.9375,-2.5351 1.1145,-1.1956 2.1694,-2.1282 2.3438,-2.0723 0.175,0.056 0.5023,0.6191 0.7285,1.2539 0.4651,1.3048 1.1154,1.8867 2.1113,1.8867 1.0489,0 1.5762,-0.7263 1.8047,-2.4843 0.1946,-1.4937 0.7481,-2.0148 0.7481,-0.7032 0,0.3209 0.2192,1.5084 0.4863,2.6387 0.5946,2.5103 1.8257,4.0606 3.2246,4.0606 0.9239,0 1.2978,-0.3082 3.582,-2.9395 0.9378,-1.0803 1.1489,-1.1856 1.9824,-1 0.5118,0.114 2.6007,0.2644 4.6426,0.334 4.2041,0.1434 4.7084,2e-4 6.9707,-2.0039 1.3396,-1.1862 1.959,-1.2588 1.959,-0.2266 0,0.7884 1.0688,1.7383 1.957,1.7383 1.145,0 1.6177,-0.6973 1.8301,-2.6973 0.4548,-4.2632 0.5587,-4.4191 0.9571,-1.4531 0.4939,3.6786 0.9705,5.1862 1.9687,6.2129 1.126,1.1567 2.1964,1.1318 3.4375,-0.08 0.5313,-0.5191 1.4374,-1.2548 2.0137,-1.6367 0.9136,-0.6055 1.1864,-0.656 2.1328,-0.3887 1.6959,0.479 6.5515,0.6581 8.2676,0.3047 1.2417,-0.2559 1.9711,-0.6883 3.705,-2.1894 2.5669,-2.2201 3.3068,-2.4186 6.0176,-1.6133 2.9233,0.8682 4.1983,0.9898 6.3985,0.6074 1.0885,-0.1892 2.1845,-0.3344 2.4355,-0.3223 6.5753,0.3181 9.8606,0.6157 10.0488,0.9082 0.1232,0.1912 0.3902,1.0675 0.5957,1.9493 0.2838,1.2184 0.5516,1.6812 1.1094,1.9257 1.2026,0.5265 2.1555,-0.089 2.6817,-1.7343 0.2469,-0.771 0.4591,-1.3155 0.4707,-1.209 0.1519,1.3808 1.0045,4.7931 1.3671,5.4668 0.5498,1.0209 1.8737,2.0937 2.584,2.0937 0.2735,0 0.9881,-0.3195 1.5879,-0.7109 0.73,-0.4766 1.7354,-0.7772 3.041,-0.9102 1.0719,-0.1092 2.2919,-0.4143 2.711,-0.6777 0.4191,-0.2637 1.2395,-0.5464 1.8261,-0.627 0.8538,-0.1172 1.1651,-0.3491 1.5606,-1.1699 0.8623,-1.7828 0.9317,-2.2497 0.4102,-2.75 -0.6822,-0.655 -1.5439,-0.585 -2.3458,0.1895 -0.7161,0.6918 -2.7496,1.6816 -3.4531,1.6816 -0.2274,0 -0.8637,0.185 -1.414,0.4102 -3.4874,1.4271 -3.6297,1.4656 -3.8887,1.0625 -0.5319,-0.8262 -1.2533,-6.8876 -1.6758,-14.0762 -0.2423,-4.1158 -0.5347,-7.7369 -0.6504,-8.0469 -0.5705,-1.5337 -1.7615,-2.0034 -2.6601,-1.0488 -0.5135,0.5442 -0.5667,0.9385 -1.4239,10.7266 -0.4283,4.9027 -0.4965,5.1556 -1.3203,4.9726 -0.647,-0.1435 -10.0006,-0.7938 -11.4668,-0.7969 -0.4179,-0.01 -1.6511,0.1663 -2.7402,0.3711 -1.8634,0.3502 -2.142,0.3266 -4.7227,-0.4043 -1.5076,-0.4272 -3.1517,-0.775 -3.6543,-0.7714 -1.4599,0.01 -3.4915,1.0656 -5.3711,2.7871 -1.2192,1.1174 -2.0013,1.6044 -2.6035,1.625 -5.0618,0.1721 -5.105,0.1687 -5.957,-0.5 -0.6799,-0.5341 -1.1399,-0.6373 -2.502,-0.5645 -1.4558,0.078 -1.849,0.2415 -3.0879,1.2891 -0.7806,0.6601 -1.5253,1.1375 -1.6542,1.0605 -0.1307,-0.077 -0.3921,-1.2919 -0.5821,-2.7012 -0.1899,-1.4088 -0.5426,-4.0108 -0.7832,-5.7812 -0.2406,-1.7702 -0.5878,-5.1275 -0.7715,-7.4609 -1.0149,-10.5786 -4.0615,-3.3612 -4.4218,0.8359 -0.9165,10.9 -0.7737,10.0878 -1.8145,10.293 -1.2883,0.2538 -2.1709,0.7556 -4.2266,2.3984 l -1.791,1.4336 -2.7793,-0.1191 c -1.5278,-0.066 -3.326,-0.2852 -3.9961,-0.4864 -2.2537,-0.6763 -3.0988,-0.7033 -3.625,-0.1191 -0.2682,0.2973 -0.9956,1.1104 -1.6132,1.8086 -0.981,1.1053 -1.1523,1.2 -1.336,0.7246 -0.5826,-1.5146 -1.2625,-6.8142 -1.6816,-13.1133 -0.4738,-7.1262 -0.6856,-8.1161 -1.834,-8.5391 -0.2521,-0.093 -0.7771,-0.029 -1.168,0.1426 -0.8088,0.3539 -0.8977,0.792 -1.3847,6.9336 -0.1664,2.0922 -0.4566,5.1409 -0.6465,6.7735 l -0.3418,2.9668 -1.7969,-0.1563 -1.7949,-0.1562 -2.5117,2.5293 c -1.5255,1.5362 -2.748,2.5264 -3.1153,2.5234 -0.3333,-0.01 -1.2913,-0.3957 -2.1289,-0.8731 -0.9389,-0.5346 -1.9537,-0.8698 -2.6445,-0.873 -0.6171,-0.01 -1.4827,-0.1369 -1.9219,-0.2969 -0.9026,-0.3301 -2.7024,0.3855 -3.791,1.5078 -0.4743,0.4894 -0.6446,0.5402 -0.7598,0.2207 -0.2469,-0.6872 -0.7389,-3.8091 -0.9179,-5.8261 -0.6407,-7.2338 -1.1692,-11.9823 -1.4219,-12.7715 -0.5221,-1.6258 -2.6754,-1.4511 -3.2988,0.2676 -0.2539,0.6992 -1.1416,7.4939 -1.6114,12.3359 -0.078,0.8024 -0.2088,0.8842 -2.0625,1.2676 -4.0216,0.8314 -6.9204,1.8374 -8.6543,3.0039 -1.3902,0.9362 -1.8492,1.1091 -2.3086,0.873 -0.9861,-0.5073 -1.8609,-0.3264 -2.7285,0.5664 -0.6113,0.6277 -1.0208,0.818 -1.5078,0.6953 -0.3696,-0.093 -1.1091,0.034 -1.6445,0.2833 -0.5371,0.2487 -1.5744,0.6045 -2.3067,0.791 -0.7322,0.1867 -1.6397,0.6587 -2.0156,1.0488 -0.377,0.3903 -0.7656,0.709 -0.8652,0.709 -0.2625,0 -0.75,-1.8804 -1.0977,-4.2422 -0.1669,-1.1268 -0.5128,-5.7744 -0.7695,-10.3281 -0.4692,-8.3286 -0.6073,-9.5565 -1.1582,-10.2285 -0.1983,-0.2422 -0.6721,-0.3588 -1.1484,-0.3536 z"
         style="fill:#1363a6;fill-opacity:1;stroke-width:49.07368088;stroke-miterlimit:4;stroke-dasharray:none"
         inkscape:connector-curvature="0" />
      <text
         transform="scale(1,-1)"
         sodipodi:linespacing="125%"
         id="text7316-6"
         y="-2875.3779"
         x="16153.503"
         style="font-style:normal;font-weight:normal;font-size:43.99758911px;line-height:125%;font-family:sans-serif;letter-spacing:0px;word-spacing:0px;fill:#1363a6;fill-opacity:1;stroke:none;stroke-width:4.34280348;stroke-linecap:butt;stroke-linejoin:miter;stroke-miterlimit:4;stroke-dasharray:none;stroke-opacity:1"
         xml:space="preserve"><tspan
           style="font-style:normal;font-variant:normal;font-weight:normal;font-stretch:normal;font-family:'Century Gothic';-inkscape-font-specification:'Century Gothic';fill:#1363a6;fill-opacity:1;stroke-width:4.34280348;stroke-miterlimit:4;stroke-dasharray:none"
           y="-2875.3779"
           x="16153.503"
           id="tspan7318-1"
           sodipodi:role="line">Grupo de Control y </tspan><tspan
           style="font-style:normal;font-variant:normal;font-weight:normal;font-stretch:normal;font-family:'Century Gothic';-inkscape-font-specification:'Century Gothic';fill:#1363a6;fill-opacity:1;stroke-width:4.34280348;stroke-miterlimit:4;stroke-dasharray:none"
           id="tspan7320-6"
           y="-2820.3809"
           x="16153.503"
           sodipodi:role="line">Procesamiento de Señales</tspan></text>
    </g>
  </g>
</svg>
