<?xml version="1.0" encoding="UTF-8"?>
<svg version="1.1" xmlns="http://www.w3.org/2000/svg" width="1920" height="1920">
<path d="M0 0 C633.6 0 1267.2 0 1920 0 C1920 633.6 1920 1267.2 1920 1920 C1286.4 1920 652.8 1920 0 1920 C0 1286.4 0 652.8 0 0 Z " fill="#1A1A19" transform="translate(0,0)"/>
<path d="M0 0 C178.86 0 357.72 0 542 0 C538.49945015 4.08397482 535.19452464 7.93040013 531.42542648 11.69482803 C530.55779828 12.56383059 529.69017007 13.43283314 528.7962501 14.32816911 C527.84848419 15.27239227 526.90067247 16.21656947 525.95281982 17.16070557 C524.93415062 18.17909439 523.91570359 19.19770548 522.89745831 20.21651816 C520.11232621 23.00194454 517.32410013 25.78425541 514.53534889 28.56605768 C511.52332943 31.57168361 508.51423076 34.58023118 505.50479126 37.58843994 C500.29428012 42.79606888 495.08199778 48.00191952 489.86855316 53.20661163 C482.32816932 60.73442917 474.79103638 68.26549497 467.25478354 75.79744789 C455.0231735 88.0219961 442.78969658 100.2446741 430.5546875 112.46582031 C429.8229139 113.1967661 429.09114029 113.9277119 428.33719173 114.68080756 C423.14151009 119.87058737 417.94576195 125.06030059 412.75 130.25 C406.80789524 136.18517384 400.86582284 142.12038005 394.92382812 148.05566406 C394.19173436 148.7869297 393.4596406 149.51819534 392.70536217 150.27162054 C380.51055964 162.45275024 368.31771079 174.63583368 356.12626195 186.82031989 C348.60553116 194.33656457 341.08302326 201.85102234 333.55823353 209.3632035 C328.40790739 214.50512104 323.25933472 219.64878979 318.11215493 224.79385689 C315.14005706 227.76460639 312.16712462 230.73450863 309.19201279 233.70223999 C306.47112214 236.416406 303.75252024 239.13284236 301.03575292 241.85113546 C300.05024086 242.83637504 299.06387123 243.82075767 298.07658061 244.80421498 C296.73915698 246.13668451 295.4050881 247.47251877 294.07120895 248.80853653 C293.32793122 249.55089247 292.58465349 250.29324841 291.81885219 251.05809999 C289.83518403 253.06961704 289.83518403 253.06961704 288 256 C287.34 256 286.68 256 286 256 C286 641.44 286 1026.88 286 1424 C276.1 1424 266.2 1424 256 1424 C256 1038.56 256 653.12 256 256 C255.01 255.67 254.02 255.34 253 255 C251.39453125 253.44140625 251.39453125 253.44140625 249.8125 251.5625 C249.28269531 250.94503906 248.75289062 250.32757813 248.20703125 249.69140625 C247 248 247 248 247 246 C246.195625 245.6596875 246.195625 245.6596875 245.375 245.3125 C239.63467504 242.14021515 234.78922911 237.33448211 231 232 C231 231.34 231 230.68 231 230 C230.195625 229.6596875 230.195625 229.6596875 229.375 229.3125 C223.63467504 226.14021515 218.78922911 221.33448211 215 216 C215 215.34 215 214.68 215 214 C214.195625 213.6596875 214.195625 213.6596875 213.375 213.3125 C207.75478185 210.20658997 204.00624601 205.93076432 200 201 C197.46389808 198.33384157 194.92534121 195.93963757 192.0625 193.625 C188.6332329 190.81923601 185.56906279 187.61673024 183 184 C183 183.34 183 182.68 183 182 C182.195625 181.6596875 182.195625 181.6596875 181.375 181.3125 C175.63467504 178.14021515 170.78922911 173.33448211 167 168 C167 167.34 167 166.68 167 166 C166.195625 165.6596875 166.195625 165.6596875 165.375 165.3125 C159.63467504 162.14021515 154.78922911 157.33448211 151 152 C151 151.34 151 150.68 151 150 C150.195625 149.6596875 150.195625 149.6596875 149.375 149.3125 C143.75478185 146.20658997 140.00624601 141.93076432 136 137 C133.46389808 134.33384157 130.92534121 131.93963757 128.0625 129.625 C124.6332329 126.81923601 121.56906279 123.61673024 119 120 C119 119.34 119 118.68 119 118 C118.46375 117.773125 117.9275 117.54625 117.375 117.3125 C111.63467504 114.14021515 106.78922911 109.33448211 103 104 C103 103.34 103 102.68 103 102 C102.46375 101.773125 101.9275 101.54625 101.375 101.3125 C95.63467504 98.14021515 90.78922911 93.33448211 87 88 C87 87.34 87 86.68 87 86 C86.46375 85.773125 85.9275 85.54625 85.375 85.3125 C79.63467504 82.14021515 74.78922911 77.33448211 71 72 C71 71.34 71 70.68 71 70 C70.46375 69.773125 69.9275 69.54625 69.375 69.3125 C63.63467504 66.14021515 58.78922911 61.33448211 55 56 C55 55.34 55 54.68 55 54 C54.46375 53.773125 53.9275 53.54625 53.375 53.3125 C47.63467504 50.14021515 42.78922911 45.33448211 39 40 C39 39.34 39 38.68 39 38 C38.46375 37.773125 37.9275 37.54625 37.375 37.3125 C31.75478185 34.20658997 28.00624601 29.93076432 24 25 C21.44387364 22.31279024 18.8800189 19.90251536 16 17.5625 C12.92096119 14.93248768 10.54921599 12.1374966 8 9 C7.13375 8.13375 6.2675 7.2675 5.375 6.375 C3 4 3 4 0 0 Z " fill="#7DC680" transform="translate(235,248)"/>
<path d="M0 0 C130.68 0 261.36 0 396 0 C394.32023977 3.35952046 393.31036625 4.93989353 390.77657318 7.4751091 C390.10849593 8.14840185 389.44041867 8.8216946 388.75209665 9.51539016 C388.01611545 10.24690992 387.28013425 10.97842968 386.52185059 11.7321167 C385.74159437 12.5154929 384.96133815 13.2988691 384.1574378 14.10598397 C381.53353839 16.7378806 378.90252398 19.36254733 376.27148438 21.98730469 C374.39226771 23.8692304 372.51344446 25.75154152 370.63508606 27.63432312 C366.05752049 32.22078747 361.47455754 36.8018217 356.88964427 41.38093963 C353.16511655 45.10095388 349.44254152 48.82291161 345.72135925 52.54627228 C345.19211368 53.07582432 344.66286811 53.60537635 344.11758479 54.15097542 C343.04252784 55.22667181 341.96747539 56.30237269 340.89242738 57.37807801 C330.80942238 67.46678745 320.72029355 77.54935489 310.62906593 87.62983873 C301.96293594 96.28702794 293.30207046 104.94945487 284.64501953 113.61572266 C274.59793765 123.67349627 264.54763387 133.72803208 254.49213076 143.7773869 C253.42096322 144.84791732 252.34979986 145.91845193 251.27864075 146.98899078 C250.48803025 147.77913845 250.48803025 147.77913845 249.68144783 148.58524869 C245.96003296 152.30493372 242.24095011 156.0269407 238.52275085 159.74983978 C233.995568 164.28261907 229.46486523 168.81184377 224.92954624 173.33648291 C222.61389937 175.6468571 220.30045129 177.95935988 217.99019814 180.27512932 C215.49075562 182.77999139 212.98530899 185.27868358 210.47814941 187.77581787 C209.74216821 188.51626052 209.00618701 189.25670316 208.24790335 190.01958346 C207.24578747 191.0138761 207.24578747 191.0138761 206.22342682 192.02825546 C205.64505774 192.60629984 205.06668866 193.18434421 204.47079325 193.77990508 C203 195 203 195 201 195 C200.34 196.32 199.68 197.64 199 199 C198.34 199 197.68 199 197 199 C195.66796875 197.64453125 195.66796875 197.64453125 194.1875 195.8125 C190.74818818 191.67366714 187.18641067 187.96395867 183 184.5625 C179.92096119 181.93248768 177.54921599 179.1374966 175 176 C172.44387364 173.31279024 169.8800189 170.90251536 167 168.5625 C163.92096119 165.93248768 161.54921599 163.1374966 159 160 C156.44387364 157.31279024 153.8800189 154.90251536 151 152.5625 C147.92096119 149.93248768 145.54921599 147.1374966 143 144 C140.44387364 141.31279024 137.8800189 138.90251536 135 136.5625 C131.92096119 133.93248768 129.54921599 131.1374966 127 128 C124.44387364 125.31279024 121.8800189 122.90251536 119 120.5625 C116.45282276 118.38678611 114.49102529 116.21523895 112.41796875 113.60546875 C110.1337256 111.01917692 107.46751593 108.88840907 104.84375 106.65625 C102.60273296 104.643133 100.87210899 102.35523389 99 100 C97.28157483 98.44345546 95.51358895 96.95913628 93.734375 95.47265625 C90.53825929 92.75883728 87.68094819 89.88523265 85.125 86.5625 C82.86842716 83.84133864 80.43782796 81.73131032 77.734375 79.47265625 C74.53825929 76.75883728 71.68094819 73.88523265 69.125 70.5625 C66.86842716 67.84133864 64.43782796 65.73131032 61.734375 63.47265625 C58.53825929 60.75883728 55.68094819 57.88523265 53.125 54.5625 C50.86842716 51.84133864 48.43782796 49.73131032 45.734375 47.47265625 C42.53825929 44.75883728 39.68094819 41.88523265 37.125 38.5625 C34.86842716 35.84133864 32.43782796 33.73131032 29.734375 31.47265625 C26.53825929 28.75883728 23.68094819 25.88523265 21.125 22.5625 C18.86503832 19.8372521 16.42880311 17.72467818 13.72265625 15.4609375 C8.66400875 11.17083735 4.17359824 6.14783875 0 1 C0 0.67 0 0.34 0 0 Z " fill="#191A19" transform="translate(308,278)"/>
<path d="M0 0 C9.9 0 19.8 0 30 0 C30 423.06 30 846.12 30 1282 C20.1 1282 10.2 1282 0 1282 C0 858.94 0 435.88 0 0 Z " fill="#FEA728" transform="translate(1656,391)"/>
<path d="M0 0 C9.9 0 19.8 0 30 0 C30 345.84 30 691.68 30 1048 C20.1 1048 10.2 1048 0 1048 C0 702.16 0 356.32 0 0 Z " fill="#FCA827" transform="translate(1423,624)"/>
<path d="M0 0 C9.9 0 19.8 0 30 0 C30 307.23 30 614.46 30 931 C20.1 931 10.2 931 0 931 C0 623.77 0 316.54 0 0 Z " fill="#FEA727" transform="translate(1190,741)"/>
<path d="M0 0 C9.9 0 19.8 0 30 0 C30 245.52 30 491.04 30 744 C20.1 744 10.2 744 0 744 C0 498.48 0 252.96 0 0 Z " fill="#7EC582" transform="translate(957,928)"/>
<path d="M0 0 C9.9 0 19.8 0 30 0 C30 192.06 30 384.12 30 582 C20.1 582 10.2 582 0 582 C0 389.94 0 197.88 0 0 Z " fill="#7EC581" transform="translate(724,1090)"/>
<path d="M0 0 C9.9 0 19.8 0 30 0 C30 423.06 30 846.12 30 1282 C20.1 1282 10.2 1282 0 1282 C0 858.94 0 435.88 0 0 Z M1 1 C1 423.07 1 845.14 1 1280 C10.24 1280 19.48 1280 29 1280 C29 1279.67 29 1279.34 29 1279 C27.35 1279 25.7 1279 24 1279 C24 857.92 24 436.84 24 3 C25.65 3 27.3 3 29 3 C29 2.34 29 1.68 29 1 C19.76 1 10.52 1 1 1 Z " fill="#EBA12D" transform="translate(1656,391)"/>
<path d="M0 0 C10.23 0 20.46 0 31 0 C31 0.66 31 1.32 31 2 C21.1 2 11.2 2 1 2 C1 424.73 1 847.46 1 1283 C0.34 1283 -0.32 1283 -1 1283 C-1 1280.36 -1 1277.72 -1 1275 C-1.66 1275 -2.32 1275 -3 1275 C-3 1277.64 -3 1280.28 -3 1283 C-5.59508268 1280.40491732 -5.24162293 1278.63031206 -5.26360231 1275.09493245 C-5.25858455 1274.25742451 -5.2535668 1273.41991657 -5.24839699 1272.5570296 C-5.25095317 1271.66699531 -5.25350934 1270.77696102 -5.25614297 1269.859956 C-5.26233233 1266.83820208 -5.25410426 1263.81665208 -5.24609566 1260.79490471 C-5.24757328 1258.61303603 -5.24992868 1256.43116779 -5.25308865 1254.2493009 C-5.25926565 1248.20056375 -5.25284442 1242.15189312 -5.24453239 1236.10316089 C-5.23840082 1230.21826788 -5.24166849 1224.33338519 -5.24469952 1218.44849086 C-5.25064221 1206.25759092 -5.24707256 1194.06671009 -5.23841095 1181.87581253 C-5.22966705 1169.51478608 -5.22526435 1157.15376951 -5.22621536 1144.79273987 C-5.22627275 1144.01317809 -5.22633013 1143.23361631 -5.22638925 1142.43043145 C-5.22670199 1138.45572657 -5.22708589 1134.48102171 -5.22749493 1130.50631684 C-5.23031295 1101.70692422 -5.22343777 1072.9075404 -5.21146011 1044.10815048 C-5.19962328 1015.57931347 -5.19191156 987.05048023 -5.18975449 958.52164078 C-5.18968566 957.63630239 -5.18961684 956.75096401 -5.18954593 955.83879719 C-5.18891955 947.75283357 -5.18834416 939.66686995 -5.18782998 931.58090632 C-5.18655103 911.4783003 -5.18463229 891.37569437 -5.18227959 871.27308846 C-5.18217295 870.35756574 -5.18206632 869.44204302 -5.18195645 868.49877718 C-5.17671087 823.94205446 -5.16409471 779.38533423 -5.15087891 734.82861328 C-5.14629567 719.36254885 -5.14174498 703.8964844 -5.1373291 688.43041992 C-5.1370552 687.47123931 -5.1367813 686.51205869 -5.13649911 685.523812 C-5.12381566 640.95067257 -5.11636129 596.37753271 -5.11025951 551.80439194 C-5.10986338 548.91138482 -5.109465 546.0183777 -5.10906615 543.12537058 C-5.10642664 523.95358473 -5.10387733 504.78179887 -5.10138843 485.61001299 C-5.09643517 447.46150535 -5.09095179 409.31299779 -5.08510434 371.16449027 C-5.08482586 369.34767639 -5.08454775 367.53086251 -5.08427001 365.71404863 C-5.07176064 283.90425384 -5.05308375 202.09446089 -5.03173828 120.28466797 C-5.03153841 119.51848177 -5.03133854 118.75229557 -5.03113261 117.96289161 C-5.02113128 79.64192764 -5.0107782 41.32096376 -5 3 C-4.34 3 -3.68 3 -3 3 C-3 5.64 -3 8.28 -3 11 C-2.34 11 -1.68 11 -1 11 C-1.020625 9.741875 -1.04125 8.48375 -1.0625 7.1875 C-1.10886083 4.35948913 -0.91692961 2.75078884 0 0 Z " fill="#201D0D" transform="translate(1655,389)"/>
<path d="M0 0 C0.66 0 1.32 0 2 0 C2 0.99 2 1.98 2 3 C2.99 2.67 3.98 2.34 5 2 C5.33 1.34 5.66 0.68 6 0 C6.66 0 7.32 0 8 0 C8 306.24 8 612.48 8 928 C7.34 928 6.68 928 6 928 C6 627.04 6 326.08 6 16 C5.34 16 4.68 16 4 16 C4.00023397 17.19777807 4.00023397 17.19777807 4.00047267 18.41975367 C4.01741001 105.3090152 4.03311667 192.19827693 4.04234314 279.08753967 C4.0424812 280.38436015 4.04261925 281.68118064 4.04276149 283.01729871 C4.04568116 310.5108586 4.04840071 338.0044185 4.05087968 365.49797843 C4.0521251 379.30822523 4.05341008 393.11847203 4.05473244 406.92871883 C4.05493169 409.01198542 4.05512981 411.09525201 4.05532788 413.17851861 C4.05838906 445.27044091 4.06230011 477.36236283 4.06866455 509.45428467 C4.06880145 510.14466299 4.06893835 510.83504131 4.0690794 511.54634018 C4.07129186 522.6777869 4.07357543 533.80923359 4.07586844 544.94068029 C4.08544988 591.46155266 4.09185225 637.98242395 4.09391499 684.50329737 C4.09420317 690.9680904 4.0945288 697.43288344 4.09487724 703.89767647 C4.09497838 705.806323 4.09497838 705.806323 4.09508156 707.75352804 C4.09626573 728.28032776 4.1009104 748.80712533 4.10683203 769.33392417 C4.11270432 789.94351874 4.11497175 810.55311117 4.11350138 831.16270655 C4.11273771 843.42453059 4.11479596 855.68634681 4.12079754 867.94816946 C4.12452721 876.12283277 4.12467803 884.29749091 4.12183181 892.47215456 C4.1203115 897.14033448 4.12042948 901.80849952 4.12488318 906.47667789 C4.12889511 910.7136651 4.12840398 914.95062566 4.12413998 919.1876124 C4.1234189 920.72026456 4.12441619 922.25291861 4.12723524 923.78556835 C4.13079395 925.84932392 4.12831886 927.91298227 4.1241985 929.97673458 C4.12443247 931.6985267 4.12443247 931.6985267 4.12467116 933.4551025 C4 936 4 936 3 937 C0.6243148 937.0883967 -1.72208674 937.11530305 -4.09765625 937.09765625 C-4.80651474 937.0962413 -5.51537323 937.09482635 -6.24571228 937.09336853 C-8.51801712 937.08775443 -10.79022475 937.07519963 -13.0625 937.0625 C-14.59960796 937.05748681 -16.13671745 937.05292359 -17.67382812 937.04882812 C-21.44925642 937.03778042 -25.22461171 937.02050641 -29 937 C-29.01713086 848.07888841 -29.03303151 759.15777661 -29.04234314 670.23666382 C-29.0424812 668.92165481 -29.04261925 667.60664579 -29.04276149 666.25178802 C-29.04568118 638.3724 -29.04840073 610.49301197 -29.05087968 582.6136239 C-29.0521251 568.60949842 -29.05341008 554.60537293 -29.05473244 540.60124745 C-29.05493169 538.48873907 -29.05512981 536.37623069 -29.05532788 534.26372231 C-29.05838893 501.72270994 -29.06229974 469.18169794 -29.06866455 436.64068604 C-29.06880145 435.94068733 -29.06893835 435.24068863 -29.0690794 434.51947785 C-29.07129185 423.23296999 -29.07357543 411.94646215 -29.07586844 400.65995431 C-29.08246957 368.1629991 -29.08854734 335.66604418 -29.09113979 303.16908836 C-29.09119333 302.50122934 -29.09124686 301.83337031 -29.09130202 301.14527313 C-29.09241528 287.14453154 -29.09330282 273.14378994 -29.09391499 259.14304832 C-29.09420317 252.58722116 -29.0945288 246.03139401 -29.09487724 239.47556686 C-29.09494467 238.18522231 -29.09501209 236.89487776 -29.09508156 235.56543186 C-29.09626558 214.75244104 -29.10090984 193.93945235 -29.10683203 173.1264624 C-29.11270533 152.22783701 -29.11497149 131.32921373 -29.11350138 110.43058755 C-29.1127379 97.99789637 -29.11479427 85.56521291 -29.12079754 73.13252312 C-29.12452871 64.84268819 -29.12467695 56.55285836 -29.12183181 48.26302309 C-29.12031231 43.52988267 -29.12042629 38.79675691 -29.12488318 34.06361802 C-29.12889904 29.76651636 -29.12840005 25.46944097 -29.12413998 21.17233977 C-29.1234197 19.61904775 -29.12441299 18.06575386 -29.12723524 16.51246424 C-29.13080162 14.41855006 -29.12831283 12.32473131 -29.1241985 10.2308203 C-29.12435448 9.06689288 -29.12451046 7.90296546 -29.12467116 6.70376752 C-29 4 -29 4 -28 2 C-19.09 2 -10.18 2 -1 2 C-0.67 1.34 -0.34 0.68 0 0 Z M-28 5 C-28 312.23 -28 619.46 -28 936 C-18.1 936 -8.2 936 2 936 C2 628.77 2 321.54 2 5 C-7.9 5 -17.8 5 -28 5 Z " fill="#312409" transform="translate(1218,736)"/>
<path d="M0 0 C9.9 0 19.8 0 30 0 C30 307.23 30 614.46 30 931 C28.68 930.67 27.36 930.34 26 930 C26.99 930 27.98 930 29 930 C28.42547254 926.06924356 28.42547254 926.06924356 26 923 C25.74971233 920.34594808 25.74971233 920.34594808 25.74930167 916.89034957 C25.74429464 915.57555937 25.7392876 914.26076917 25.73412883 912.90613684 C25.73868324 911.43008294 25.74341966 909.9540296 25.74831772 908.4779768 C25.74623362 906.91669096 25.74327276 905.35540608 25.73950899 903.79412338 C25.73166415 899.468419 25.73641029 895.14280296 25.74306489 890.81709989 C25.74810925 886.12443892 25.74163006 881.43179217 25.73657823 876.73913318 C25.72933081 868.50287325 25.72958867 860.2666395 25.73467255 852.03037834 C25.74221191 839.78297174 25.73838338 827.53558738 25.73225593 815.28818095 C25.72170237 793.41833439 25.72264606 771.54849948 25.72841376 749.6786518 C25.73343698 730.53856724 25.73476197 711.39848696 25.73236847 692.25840187 C25.7322157 690.99075767 25.73206293 689.72311347 25.73190553 688.41705581 C25.73128289 683.27175784 25.73064609 678.12645988 25.729986 672.98116192 C25.72543139 637.05118754 25.72463756 601.12121509 25.73211288 565.19124126 C25.73225338 564.51362471 25.73239388 563.83600815 25.73253864 563.13785776 C25.73482868 552.13302293 25.73726754 541.12818813 25.73971898 530.12335334 C25.74943036 486.48140138 25.74898279 442.83946168 25.73925781 399.19750977 C25.73681551 388.20186966 25.73439345 377.20622955 25.73211288 366.21058941 C25.73190154 365.19508474 25.73190154 365.19508474 25.73168593 364.15906482 C25.72413439 327.62412829 25.72579615 291.08919277 25.73048234 254.55425578 C25.73112381 249.41718567 25.73174949 244.28011555 25.73236847 239.14304543 C25.73252662 237.87809285 25.73268478 236.61314028 25.73284773 235.30985581 C25.73512578 216.18049846 25.73245631 197.05114586 25.72740936 177.92178917 C25.72170074 156.17556155 25.72309925 134.42934745 25.73397085 112.68312152 C25.7398591 100.50210566 25.74020427 88.32111904 25.7326785 76.14010391 C25.7282105 68.01426762 25.73095436 59.88845489 25.73968804 51.76262211 C25.74446803 47.12563577 25.74602605 42.48870776 25.73887607 37.85172316 C25.73244524 33.63836521 25.73511691 29.42511765 25.7452374 25.21176785 C25.74726179 23.69217166 25.74589327 22.17256645 25.74082552 20.65297736 C25.7344525 18.59708229 25.74031399 16.54157482 25.74930167 14.48569793 C25.74950495 12.77487174 25.74950495 12.77487174 25.74971233 11.02948342 C26 8 26 8 28 3 C19.42 3 10.84 3 2 3 C1.67 309.24 1.34 615.48 1 931 C0.67 931 0.34 931 0 931 C0 623.77 0 316.54 0 0 Z " fill="#E79D2C" transform="translate(1190,741)"/>
<path d="M0 0 C9.9 0 19.8 0 30 0 C30 345.84 30 691.68 30 1048 C20.1 1048 10.2 1048 0 1048 C0 702.16 0 356.32 0 0 Z M2 5 C2 348.86 2 692.72 2 1047 C15.08421262 1047.35046493 15.08421262 1047.35046493 28 1046 C28 702.47 28 358.94 28 5 C23.74291371 2.87145685 20.73032338 2.69929919 16.125 2.75 C15.43019531 2.74226562 14.73539063 2.73453125 14.01953125 2.7265625 C9.36438374 2.74409601 6.59069323 3.46976892 2 5 Z " fill="#E3A13F" transform="translate(1423,624)"/>
<path d="M0 0 C0 3 0 3 -1.53017366 4.90161848 C-2.25511479 5.62487837 -2.98005591 6.34813827 -3.72696495 7.09331512 C-4.5582631 7.92996972 -5.38956124 8.76662431 -6.24605024 9.62863207 C-7.17462264 10.54778383 -8.10319504 11.46693559 -9.05990601 12.41394043 C-10.04495071 13.3995768 -11.02933513 14.38587344 -12.01311171 15.37277555 C-14.72751471 18.09196457 -17.45121585 20.80167299 -20.17645645 23.50999427 C-23.11036643 26.42893899 -26.03563767 29.35651773 -28.96192932 32.28309631 C-34.03669461 37.35602094 -39.11687983 42.42346537 -44.20069504 47.48731995 C-51.55377633 54.81163411 -58.89812033 62.14465851 -66.24024172 69.47995728 C-78.15515977 81.38342096 -90.07639841 93.28053318 -102.00195312 105.17333984 C-113.58261044 116.72223667 -125.1615529 128.27284623 -136.73730469 139.82666016 C-137.45006582 140.53806772 -138.16282696 141.24947528 -138.89718692 141.98244065 C-146.67499839 149.74561752 -154.45211085 157.50949412 -162.22838783 165.27420807 C-163.25299694 166.2972896 -163.25299694 166.2972896 -164.29830522 167.34103945 C-167.02865615 170.06733878 -169.75899939 172.7936458 -172.48925288 175.52004272 C-180.49139439 183.51084617 -188.49572203 191.49944501 -196.50397743 199.48412144 C-201.52666823 204.4921264 -206.54775579 209.5017346 -211.56757735 214.51261556 C-214.46669756 217.40640559 -217.36668255 220.29931629 -220.26886559 223.19003487 C-222.92336675 225.83405512 -225.5755903 228.48033755 -228.225998 231.12846094 C-229.64445808 232.54446315 -231.06542343 233.95795436 -232.48646295 235.37136793 C-233.32297659 236.20802252 -234.15949023 237.04467711 -235.02135277 237.90668488 C-235.7466186 238.62994477 -236.47188443 239.35320466 -237.21912801 240.09838152 C-239.16990343 242.0773234 -239.16990343 242.0773234 -241 245 C-241.66 245 -242.32 245 -243 245 C-243 630.44 -243 1015.88 -243 1413 C-252.57 1413 -262.14 1413 -272 1413 C-272 1027.56 -272 642.12 -272 245 C-271.67 245 -271.34 245 -271 245 C-271 629.78 -271 1014.56 -271 1411 C-254.79133718 1411.42426407 -254.79133718 1411.42426407 -246 1410 C-245.99944384 1408.99406725 -245.99888767 1407.98813451 -245.99831466 1406.95171895 C-245.97925722 1372.51004874 -245.95975645 1338.06837877 -245.93994141 1303.62670898 C-245.93954227 1302.93287848 -245.93914313 1302.23904798 -245.9387319 1301.52419231 C-245.8959582 1227.19077254 -245.85026908 1152.85735524 -245.79867554 1078.52394104 C-245.79753046 1076.87310352 -245.79638539 1075.22226599 -245.79524031 1073.57142847 C-245.77119693 1038.92116567 -245.74674307 1004.27090317 -245.72181495 969.620641 C-245.70929347 952.21509168 -245.69685088 934.80954231 -245.68448287 917.40399288 C-245.68261673 914.77840454 -245.68074833 912.1528162 -245.67887984 909.52722785 C-245.65012199 869.08901521 -245.62305772 828.6508023 -245.60089111 788.21258545 C-245.60041435 787.34289412 -245.59993759 786.47320279 -245.59944638 785.57715717 C-245.59176966 771.5548426 -245.58423486 757.53252795 -245.57671889 743.51021329 C-245.55507275 703.1296834 -245.53238002 662.74915534 -245.50273705 622.36863041 C-245.50212818 621.53852212 -245.50151932 620.70841383 -245.500892 619.85315074 C-245.48750824 601.63179464 -245.47358457 583.41043898 -245.45914945 565.18908368 C-245.45335106 557.85781205 -245.44763042 550.52654035 -245.44193649 543.19526863 C-245.44131144 542.39288479 -245.44068638 541.59050094 -245.44004238 540.76380243 C-245.41992999 514.89593253 -245.40615061 489.028064 -245.39568184 463.16018854 C-245.38511033 437.10989874 -245.3683506 411.0596209 -245.34294968 385.00934111 C-245.3394436 381.41203686 -245.33600873 377.81473256 -245.33261681 374.21742821 C-245.3319493 373.51223458 -245.33128179 372.80704095 -245.33059406 372.08047782 C-245.32019572 360.89993725 -245.31651737 349.71940487 -245.31562213 338.53885992 C-245.31460509 327.55327784 -245.30635361 316.56771652 -245.29084408 305.58214422 C-245.28275104 299.70200961 -245.27787984 293.82191915 -245.28172119 287.94177919 C-245.28515097 282.59804484 -245.27949177 277.25440211 -245.26641935 271.91068335 C-245.2633282 269.98413294 -245.26361839 268.05757356 -245.26760875 266.1310248 C-245.27252869 263.52302001 -245.26521748 260.91532553 -245.25480902 258.30734342 C-245.25916752 257.56017176 -245.26352602 256.81300009 -245.2680166 256.04318686 C-245.22917385 250.91317208 -244.99977805 245.23975141 -241.4375 241.25 C-240.7259375 240.63125 -240.7259375 240.63125 -240 240 C-239.67 239.01 -239.34 238.02 -239 237 C-236.77060286 235.14216905 -234.41713522 233.61142348 -232 232 C-232 231.01 -232 230.02 -232 229 C-231.01 228.67 -230.02 228.34 -229 228 C-228.34 227.34 -227.68 226.68 -227 226 C-226.01 225.34 -225.02 224.68 -224 224 C-224 223.01 -224 222.02 -224 221 C-223.01 220.67 -222.02 220.34 -221 220 C-220.34 219.34 -219.68 218.68 -219 218 C-218.01 217.34 -217.02 216.68 -216 216 C-216 215.01 -216 214.02 -216 213 C-215.01 212.67 -214.02 212.34 -213 212 C-212.34 211.34 -211.68 210.68 -211 210 C-210.01 209.34 -209.02 208.68 -208 208 C-208 207.01 -208 206.02 -208 205 C-207.01 204.67 -206.02 204.34 -205 204 C-204.34 203.34 -203.68 202.68 -203 202 C-202.01 201.34 -201.02 200.68 -200 200 C-200 199.01 -200 198.02 -200 197 C-199.01 196.67 -198.02 196.34 -197 196 C-196.34 195.34 -195.68 194.68 -195 194 C-194.01 193.34 -193.02 192.68 -192 192 C-192 191.01 -192 190.02 -192 189 C-191.01 188.67 -190.02 188.34 -189 188 C-188.34 187.34 -187.68 186.68 -187 186 C-186.01 185.34 -185.02 184.68 -184 184 C-184 183.01 -184 182.02 -184 181 C-183.01 180.67 -182.02 180.34 -181 180 C-180.34 179.34 -179.68 178.68 -179 178 C-178.01 177.34 -177.02 176.68 -176 176 C-176 175.01 -176 174.02 -176 173 C-175.01 172.67 -174.02 172.34 -173 172 C-172.34 171.34 -171.68 170.68 -171 170 C-170.01 169.34 -169.02 168.68 -168 168 C-168 167.01 -168 166.02 -168 165 C-167.01 164.67 -166.02 164.34 -165 164 C-164.34 163.34 -163.68 162.68 -163 162 C-162.01 161.34 -161.02 160.68 -160 160 C-160 159.01 -160 158.02 -160 157 C-159.01 156.67 -158.02 156.34 -157 156 C-156.34 155.34 -155.68 154.68 -155 154 C-154.01 153.34 -153.02 152.68 -152 152 C-152 151.01 -152 150.02 -152 149 C-151.01 148.67 -150.02 148.34 -149 148 C-148.34 147.34 -147.68 146.68 -147 146 C-146.01 145.34 -145.02 144.68 -144 144 C-144 143.01 -144 142.02 -144 141 C-143.01 140.67 -142.02 140.34 -141 140 C-140.34 139.34 -139.68 138.68 -139 138 C-138.01 137.34 -137.02 136.68 -136 136 C-136 135.01 -136 134.02 -136 133 C-135.01 132.67 -134.02 132.34 -133 132 C-132.34 131.34 -131.68 130.68 -131 130 C-130.01 129.34 -129.02 128.68 -128 128 C-128 127.01 -128 126.02 -128 125 C-127.01 124.67 -126.02 124.34 -125 124 C-124.34 123.34 -123.68 122.68 -123 122 C-122.01 121.34 -121.02 120.68 -120 120 C-120 119.01 -120 118.02 -120 117 C-119.01 116.67 -118.02 116.34 -117 116 C-116.34 115.34 -115.68 114.68 -115 114 C-114.01 113.34 -113.02 112.68 -112 112 C-112 111.01 -112 110.02 -112 109 C-111.01 108.67 -110.02 108.34 -109 108 C-108.34 107.34 -107.68 106.68 -107 106 C-106.01 105.34 -105.02 104.68 -104 104 C-104 103.01 -104 102.02 -104 101 C-103.01 100.67 -102.02 100.34 -101 100 C-100.34 99.34 -99.68 98.68 -99 98 C-98.01 97.34 -97.02 96.68 -96 96 C-96 95.01 -96 94.02 -96 93 C-95.01 92.67 -94.02 92.34 -93 92 C-92.34 91.34 -91.68 90.68 -91 90 C-90.01 89.34 -89.02 88.68 -88 88 C-88 87.01 -88 86.02 -88 85 C-87.01 84.67 -86.02 84.34 -85 84 C-84.34 83.34 -83.68 82.68 -83 82 C-82.01 81.34 -81.02 80.68 -80 80 C-80 79.01 -80 78.02 -80 77 C-79.01 76.67 -78.02 76.34 -77 76 C-76.34 75.34 -75.68 74.68 -75 74 C-74.01 73.34 -73.02 72.68 -72 72 C-72 71.01 -72 70.02 -72 69 C-71.01 68.67 -70.02 68.34 -69 68 C-68.34 67.34 -67.68 66.68 -67 66 C-66.01 65.34 -65.02 64.68 -64 64 C-64 63.01 -64 62.02 -64 61 C-63.01 60.67 -62.02 60.34 -61 60 C-60.01 59.01 -60.01 59.01 -59 58 C-58.01 57.34 -57.02 56.68 -56 56 C-56 55.01 -56 54.02 -56 53 C-55.01 52.67 -54.02 52.34 -53 52 C-52.01 51.01 -52.01 51.01 -51 50 C-50.01 49.34 -49.02 48.68 -48 48 C-48 47.01 -48 46.02 -48 45 C-47.01 44.67 -46.02 44.34 -45 44 C-44.01 43.01 -44.01 43.01 -43 42 C-42.01 41.34 -41.02 40.68 -40 40 C-40 39.01 -40 38.02 -40 37 C-39.01 36.67 -38.02 36.34 -37 36 C-36.01 35.01 -36.01 35.01 -35 34 C-34.01 33.34 -33.02 32.68 -32 32 C-32 31.01 -32 30.02 -32 29 C-31.01 28.67 -30.02 28.34 -29 28 C-28.34 27.34 -27.68 26.68 -27 26 C-26.01 25.34 -25.02 24.68 -24 24 C-24 23.01 -24 22.02 -24 21 C-23.01 20.67 -22.02 20.34 -21 20 C-20.34 19.34 -19.68 18.68 -19 18 C-18.01 17.34 -17.02 16.68 -16 16 C-16 15.01 -16 14.02 -16 13 C-14.515 12.505 -14.515 12.505 -13 12 C-12.34 11.34 -11.68 10.68 -11 10 C-9.515 9.01 -9.515 9.01 -8 8 C-8 7.01 -8 6.02 -8 5 C-6.515 4.505 -6.515 4.505 -5 4 C-4.34 3.34 -3.68 2.68 -3 2 C-1.515 1.01 -1.515 1.01 0 0 Z " fill="#86BE88" transform="translate(764,259)"/>
<path d="M0 0 C0.33 0 0.66 0 1 0 C1 306.24 1 612.48 1 928 C0.67 928 0.34 928 0 928 C0 925.36 0 922.72 0 920 C-0.66 920 -1.32 920 -2 920 C-2.495 922.475 -2.495 922.475 -3 925 C-3.33 925 -3.66 925 -4 925 C-3.67 622.72 -3.34 320.44 -3 9 C-2.01 8.67 -1.02 8.34 0 8 C0 5.36 0 2.72 0 0 Z " fill="#191B0A" transform="translate(1188,744)"/>
<path d="M0 0 C0.33 0 0.66 0 1 0 C1.01099588 39.21728505 1.02153981 78.43457021 1.03173828 117.65185547 C1.03193788 118.41923026 1.03213747 119.18660505 1.03234312 119.97723363 C1.05371151 202.17851686 1.07215935 284.37980012 1.08468628 366.58108521 C1.08496518 368.40634522 1.08524408 370.23160524 1.08552299 372.05686525 C1.09136796 410.36690195 1.09680144 448.67693871 1.10175936 486.98697553 C1.10425021 506.23047531 1.10682015 525.47397507 1.10946488 544.71747482 C1.10986338 547.62034115 1.11025962 550.52320747 1.11065576 553.4260738 C1.116778 598.14277397 1.1245999 642.85947305 1.1373291 687.57617188 C1.1376029 688.53811602 1.1378767 689.50006017 1.13815879 690.49115414 C1.14258371 706.0012106 1.14715086 721.51126701 1.15173688 737.02132342 C1.16493881 781.67796818 1.17709446 826.3346121 1.18227959 870.99125862 C1.18238666 871.90897849 1.18249373 872.82669836 1.18260404 873.77222793 C1.1849352 893.91512814 1.18672508 914.05802837 1.18800197 934.20092867 C1.18852523 942.30492337 1.18912647 950.40891806 1.18975449 958.51291275 C1.18982134 959.39987699 1.18988819 960.28684122 1.18995707 961.20068316 C1.19215237 989.81075723 1.20070264 1018.42082509 1.21256442 1047.03089664 C1.22447769 1075.83498936 1.23020298 1104.63907606 1.22724798 1133.44317131 C1.22684178 1137.41782557 1.22650703 1141.39247983 1.22621536 1145.36713409 C1.2261556 1146.14632324 1.22609584 1146.92551238 1.22603427 1147.72831332 C1.22527107 1160.09811289 1.23125845 1172.46789976 1.24001972 1184.83769586 C1.24848407 1196.98213558 1.24989914 1209.12655873 1.24366363 1221.271 C1.24062372 1227.77539841 1.24085609 1234.27975412 1.24976636 1240.78414808 C1.25779376 1246.68846124 1.25680445 1252.59269794 1.24827995 1258.49700978 C1.24683851 1260.63210172 1.24882953 1262.7671991 1.25447049 1264.90228408 C1.26159489 1267.77874582 1.25663244 1270.65492905 1.24839699 1273.53138149 C1.25341475 1274.37152644 1.2584325 1275.21167139 1.26360231 1276.07727528 C1.22831003 1281.77168997 1.22831003 1281.77168997 -1 1284 C-2.82439513 1282.17560487 -2.12217988 1279.63815576 -2.12817955 1277.20986912 C-2.12360455 1275.94606558 -2.12360455 1275.94606558 -2.11893713 1274.65673065 C-2.11964502 1273.76532097 -2.12035291 1272.87391129 -2.12108226 1271.95548919 C-2.12224061 1268.92306442 -2.11617206 1265.89069496 -2.11022377 1262.85827637 C-2.10955969 1260.67105493 -2.10933442 1258.48383332 -2.10951185 1256.29661179 C-2.10870783 1250.22835621 -2.10159025 1244.1601213 -2.09352835 1238.09187162 C-2.08666093 1232.18938965 -2.08448668 1226.28690722 -2.08219123 1220.38442198 C-2.07726499 1208.15593511 -2.06755693 1195.92745613 -2.05528831 1183.69897461 C-2.04286428 1171.29882908 -2.03260052 1158.89868461 -2.02499962 1146.49853516 C-2.02451885 1145.71666279 -2.02403808 1144.93479042 -2.02354275 1144.12922495 C-2.02159199 1140.94502134 -2.01965671 1137.76081771 -2.01774107 1134.57661408 C-1.99987507 1104.88562617 -1.97705942 1075.19464397 -1.9510994 1045.50366211 C-1.95032944 1044.62300041 -1.94955948 1043.74233872 -1.94876619 1042.83499031 C-1.947995 1041.95293012 -1.94722382 1041.07086993 -1.94642927 1040.16208065 C-1.92296778 1013.32363117 -1.90137241 986.48518099 -1.88163376 959.64672852 C-1.88031089 957.85169548 -1.87898769 956.05666244 -1.87766418 954.2616294 C-1.87234765 947.04870552 -1.86703937 939.83578162 -1.8617431 932.62285772 C-1.84692926 912.45792215 -1.83176853 892.29298686 -1.81633568 872.12805176 C-1.81563287 871.20967686 -1.81493006 870.29130197 -1.81420595 869.34509753 C-1.79177531 840.06791377 -1.76780625 810.79073147 -1.74279213 781.5135498 C-1.74198068 780.56353194 -1.74116924 779.61351407 -1.74033321 778.63470779 C-1.72715051 763.20561342 -1.71389331 747.77651912 -1.70062983 732.34742482 C-1.6480257 671.14828633 -1.60050298 609.94914606 -1.55761719 548.75 C-1.5468067 533.32881671 -1.53598614 517.90763343 -1.52509499 502.4864502 C-1.52442468 501.53699897 -1.52375438 500.58754774 -1.52306376 499.60932527 C-1.50240165 470.3635319 -1.48050076 441.11773967 -1.4572506 411.87194824 C-1.45652108 410.95424196 -1.45579156 410.03653567 -1.45503993 409.0910201 C-1.43901383 388.94874271 -1.42266678 368.80646559 -1.40603011 348.66418869 C-1.40007896 341.45759133 -1.39414386 334.25099395 -1.38821334 327.04439657 C-1.38673725 325.25147142 -1.38525981 323.45854626 -1.38378103 321.66562111 C-1.36165235 294.83208519 -1.34173748 267.9985484 -1.32332266 241.16500969 C-1.32271829 240.284348 -1.32211392 239.4036863 -1.32149124 238.49633789 C-1.32088802 237.61729036 -1.3202848 236.73824282 -1.3196633 235.83255748 C-1.29931878 206.22980636 -1.27522122 176.62706037 -1.24684478 147.02431583 C-1.24381615 143.85003218 -1.24080319 140.67574852 -1.23780251 137.50146484 C-1.23669558 136.33287644 -1.23669558 136.33287644 -1.23556629 135.14068019 C-1.2239382 122.77016593 -1.2156695 110.39965177 -1.20877247 98.02913407 C-1.20193129 85.88569948 -1.19155609 73.74227227 -1.17733643 61.59884402 C-1.16986761 55.09432441 -1.16403107 48.58981392 -1.16251679 42.08528996 C-1.16110979 36.18205255 -1.1552036 30.2788384 -1.1455207 24.37560892 C-1.14283782 22.23978366 -1.14187282 20.10395546 -1.1427255 17.96812868 C-1.14363582 15.09314733 -1.13852361 12.21824129 -1.13176119 9.34326935 C-1.13349268 8.50073365 -1.13522417 7.65819796 -1.13700813 6.79013088 C-1.11415569 1.11415569 -1.11415569 1.11415569 0 0 Z " fill="#24160E" transform="translate(1693,386)"/>
<path d="M0 0 C0.66 0.33 1.32 0.66 2 1 C1.83769384 2.30853785 1.67538768 3.61707571 1.50816316 4.96526622 C1.00531028 9.51375225 0.85799371 13.98323767 0.86938947 18.55574042 C0.8664307 19.78129812 0.8664307 19.78129812 0.86341216 21.03161457 C0.85802557 23.76228551 0.85969115 26.49290528 0.8613348 29.22358036 C0.85888612 31.21236686 0.85600187 33.20115286 0.85272202 35.18993816 C0.84495141 40.66992013 0.84338015 46.1498892 0.8427946 51.62987601 C0.84106609 57.58591573 0.83358102 63.54194861 0.82681805 69.49798435 C0.8157563 79.94143111 0.80835494 90.38487612 0.80341911 100.82832718 C0.79810408 112.03343526 0.79062151 123.23853878 0.78049088 134.44364357 C0.77985224 135.15143317 0.77921361 135.85922278 0.77855562 136.58846055 C0.77528922 140.1974979 0.77198752 143.80653521 0.76867336 147.41557252 C0.74475867 173.53665957 0.72564441 199.65774837 0.70907402 225.77884102 C0.69264964 251.64757048 0.67417196 277.51629714 0.65294075 303.38502312 C0.65228236 304.1883694 0.65162396 304.99171569 0.65094561 305.8194058 C0.64493111 313.15672338 0.63889129 320.49404093 0.63282111 327.83135846 C0.61773154 346.07120874 0.60295941 364.31105928 0.58840275 382.55091 C0.58773961 383.38151782 0.58707647 384.21212564 0.58639324 385.06790339 C0.55416217 425.4734084 0.52558849 465.87891589 0.49731445 506.28442383 C0.48750055 520.30625409 0.47767047 534.32808434 0.46777344 548.34991455 C0.46715964 549.21954839 0.46654584 550.08918223 0.46591344 550.98516861 C0.43735799 591.41137287 0.40620459 631.837575 0.37438093 672.26377681 C0.37231499 674.88823849 0.37025017 677.51270016 0.36818558 680.13716184 C0.35450164 697.52958921 0.34077293 714.92201653 0.32701423 732.31444384 C0.29963818 766.92113278 0.27252524 801.52782191 0.24559305 836.1345112 C0.24431047 837.78257638 0.2430277 839.43064157 0.24174474 841.07870675 C0.18398971 915.27195178 0.12929553 989.46519896 0.07592773 1063.65844727 C0.07542799 1064.35317213 0.07492825 1065.047897 0.07441337 1065.76367414 C0.04942208 1100.50911596 0.02460546 1135.2545579 0 1170 C-0.66 1170 -1.32 1170 -2 1170 C-2.01099589 1134.27099622 -2.02153982 1098.5419923 -2.03173828 1062.81298828 C-2.03193788 1062.11386893 -2.03213747 1061.41474958 -2.03234312 1060.6944448 C-2.0537116 985.8043437 -2.07215942 910.91424255 -2.08468628 836.0241394 C-2.08496518 834.3612128 -2.08524408 832.6982862 -2.08552299 831.0353596 C-2.09136797 796.1324689 -2.09680144 761.22957815 -2.10175936 726.32668732 C-2.1042502 708.79461639 -2.10682015 691.26254548 -2.10946488 673.73047458 C-2.10986338 671.08577675 -2.11025962 668.44107892 -2.11065576 665.79638109 C-2.11677796 625.05683943 -2.12459979 584.31729897 -2.1373291 543.57775879 C-2.1376029 542.70137848 -2.1378767 541.82499818 -2.13815879 540.92206089 C-2.1425837 526.79161629 -2.14715086 512.66117174 -2.15173688 498.53072719 C-2.1649389 457.8460155 -2.17709452 417.16130473 -2.18227959 376.47659111 C-2.18238666 375.64048768 -2.18249373 374.80438424 -2.18260404 373.94294434 C-2.18493521 355.59138247 -2.18672508 337.23982058 -2.18800197 318.88825861 C-2.18852523 311.50495189 -2.18912647 304.12164518 -2.18975449 296.73833847 C-2.18982134 295.93025219 -2.18988819 295.12216592 -2.18995707 294.28959218 C-2.19215233 268.22429723 -2.20070246 242.15900909 -2.21256442 216.0937169 C-2.22447797 189.85142158 -2.2302029 163.60913287 -2.22724798 137.36683477 C-2.22684178 133.7455903 -2.22650703 130.12434583 -2.22621536 126.50310135 C-2.2261556 125.79319516 -2.22609584 125.08328897 -2.22603427 124.35187048 C-2.2252711 113.08245103 -2.23125817 101.81304551 -2.24001972 90.54362986 C-2.24848456 79.47922555 -2.24973119 68.41483575 -2.24366363 57.35042875 C-2.24062395 51.42460254 -2.24085517 45.4988232 -2.24976636 39.57300188 C-2.25779489 34.19367235 -2.25680333 28.81442675 -2.24827995 23.43509867 C-2.24683874 21.4900501 -2.24882861 19.54499555 -2.25447049 17.59995463 C-2.26159715 14.97908026 -2.25663076 12.35851136 -2.24839699 9.73764718 C-2.25341475 8.9726571 -2.2584325 8.20766702 -2.26360231 7.41949543 C-2.22831003 2.22831003 -2.22831003 2.22831003 0 0 Z " fill="#0C1D0E" transform="translate(524,502)"/>
<path d="M0 0 C0.99 0 1.98 0 3 0 C2.67 341.55 2.34 683.1 2 1035 C1.34 1034.67 0.68 1034.34 0 1034 C0 692.78 0 351.56 0 0 Z " fill="#F4A323" transform="translate(1448,629)"/>
<path d="M0 0 C0.66 0.33 1.32 0.66 2 1 C1.67 1.66 1.34 2.32 1 3 C1.66 3 2.32 3 3 3 C3.05133428 58.15772356 3.09909881 113.31544938 3.12702942 168.47319031 C3.12744359 169.28901417 3.12785776 170.10483804 3.12828448 170.94538384 C3.13726236 188.67370177 3.14557302 206.40201995 3.15319599 224.13033851 C3.15693813 232.82379018 3.16082777 241.51724179 3.16479492 250.21069336 C3.1651872 251.075815 3.16557948 251.94093664 3.16598364 252.83227409 C3.17877695 280.89386209 3.20131777 308.95543202 3.22889166 337.01700907 C3.2571665 365.84415722 3.275651 394.67129537 3.28174497 423.49845716 C3.28260949 427.56630023 3.2835864 431.63414328 3.28463173 435.70198631 C3.284834 436.50262817 3.28503627 437.30327003 3.28524467 438.12817377 C3.28879542 451.03739897 3.30272466 463.9465933 3.3204961 476.8558059 C3.33812474 489.82114531 3.34491227 502.786454 3.34050413 515.75180499 C3.33821536 523.46303389 3.34436806 531.17415068 3.36239263 538.88535943 C3.37490999 544.63095259 3.37191502 550.37645156 3.36269668 556.12204709 C3.36142082 558.45587005 3.36529776 560.78970225 3.37464955 563.12350682 C3.3865647 566.27866172 3.38027631 569.433254 3.36914349 572.58839893 C3.37702453 573.5094339 3.38490557 574.43046887 3.39302543 575.37941399 C3.38291261 576.63444965 3.38291261 576.63444965 3.37259549 577.91483957 C3.37306343 578.63687388 3.37353137 579.35890819 3.37401349 580.10282232 C2.89242294 582.54568296 1.82993851 583.37161855 0 585 C-0.33 585.66 -0.66 586.32 -1 587 C-1.66 587 -2.32 587 -3 587 C-3 586.34 -3 585.68 -3 585 C-8.28 585 -13.56 585 -19 585 C-19 584.67 -19 584.34 -19 584 C-22.63 583.67 -26.26 583.34 -30 583 C-30 582.67 -30 582.34 -30 582 C-20.1 582 -10.2 582 0 582 C0 389.94 0 197.88 0 0 Z " fill="#0F1D10" transform="translate(755,1091)"/>
<path d="M0 0 C51.38314098 0.06114458 102.76627841 0.12466298 154.1493988 0.20132446 C154.90969068 0.20245809 155.66998255 0.20359171 156.45331357 0.20475969 C172.97586595 0.22941021 189.49841763 0.25450304 206.02096865 0.28005161 C214.12343535 0.29257764 222.22590221 0.30500591 230.32836914 0.31738281 C231.13466888 0.31861614 231.94096862 0.31984946 232.77170169 0.32112016 C258.91374485 0.36106147 285.05579145 0.39454561 311.19784759 0.42468691 C338.05860735 0.45569092 364.91935033 0.4931979 391.78008928 0.53890612 C395.57258461 0.54535667 399.36508007 0.55173276 403.15757561 0.55806351 C404.27721956 0.55993596 404.27721956 0.55993596 405.41948257 0.56184625 C417.44269895 0.58176188 429.46591347 0.59480715 441.48914136 0.60529328 C453.57183659 0.61597752 465.65450398 0.63387576 477.73717762 0.65916704 C484.28573568 0.67267375 490.83426569 0.68270285 497.3828392 0.68421364 C503.37429667 0.68566655 509.36566546 0.69622877 515.35709571 0.71413441 C517.52812956 0.71899704 519.69917408 0.72047405 521.87021226 0.71827881 C524.81534196 0.71578905 527.7601879 0.72549201 530.70528507 0.73828697 C531.55324252 0.73463729 532.40119996 0.73098761 533.27485308 0.72722733 C538.22335629 0.76437044 542.30440551 1.41772481 547 3 C546.67 3.99 546.34 4.98 546 6 C545.67 5.34 545.34 4.68 545 4 C365.48 4 185.96 4 1 4 C1 4.66 1 5.32 1 6 C1.598125 6.226875 2.19625 6.45375 2.8125 6.6875 C5.56351888 8.33811133 6.52484637 10.1972081 8 13 C5.75 12.9375 5.75 12.9375 3 12 C0.9101187 9.34257905 -1 6.46449449 -1 3 C-0.34 3 0.32 3 1 3 C0.67 2.01 0.34 1.02 0 0 Z " fill="#0E1C10" transform="translate(233,243)"/>
<path d="M0 0 C1.65 0 3.3 0 5 0 C5 421.08 5 842.16 5 1276 C4.01 1276 3.02 1276 2 1276 C2.16230616 1275.19279566 2.32461232 1274.38559133 2.49183684 1273.55392625 C3.08895673 1269.37786586 3.14011526 1265.34869359 3.13061053 1261.13717997 C3.13258304 1260.25036646 3.13455555 1259.36355296 3.13658784 1258.44986631 C3.14200724 1255.46327069 3.14030391 1252.47672133 3.1386652 1249.49012184 C3.14111205 1247.32405652 3.14399574 1245.15799166 3.14727798 1242.99192744 C3.15507097 1237.00573805 3.15662088 1231.01956045 3.1572054 1225.03336661 C3.15875248 1219.20361866 3.16499149 1213.37387697 3.17110313 1207.5441323 C3.18359215 1195.47192142 3.19136016 1183.3997116 3.19658089 1171.32749557 C3.20189203 1159.09070347 3.20937055 1146.85391555 3.21950912 1134.61712646 C3.22014776 1133.84476921 3.22078639 1133.07241195 3.22144438 1132.27664993 C3.22471069 1128.33852563 3.22801241 1124.40040137 3.23132664 1120.46227711 C3.25525442 1091.94404743 3.27436296 1063.42581615 3.29092598 1034.90758133 C3.30734523 1006.66115759 3.32582074 978.41473643 3.34705925 950.16831589 C3.34771764 949.29142883 3.34837604 948.41454178 3.34905439 947.51108239 C3.35506881 939.50219263 3.36110862 931.49330288 3.36717889 923.48441315 C3.38226929 903.57428191 3.39704129 883.66415043 3.41159725 863.75401878 C3.41226039 862.84730679 3.41292353 861.9405948 3.41360676 861.00640669 C3.44584498 816.88887565 3.47441501 772.77134233 3.50268555 728.65380859 C3.51249937 713.34204099 3.52232941 698.03027341 3.53222656 682.71850586 C3.53284036 681.768882 3.53345416 680.81925815 3.53408656 679.84085781 C3.56263713 635.70381872 3.59379176 591.56678158 3.62561907 547.42974474 C3.62768502 544.56470131 3.62974983 541.69965789 3.63181442 538.83461446 C3.64549825 519.84798784 3.65922697 500.86136126 3.67298577 481.8747347 C3.70036248 444.09533628 3.72747534 406.31593767 3.75440695 368.53653892 C3.75568953 366.73734315 3.7569723 364.93814738 3.75825526 363.13895162 C3.81601711 282.13251237 3.8707093 201.12607116 3.92407227 120.11962891 C3.92457201 119.36103856 3.92507175 118.60244822 3.92558663 117.82087029 C3.9505784 79.88058032 3.97539504 41.94029023 4 4 C2.68 4 1.36 4 0 4 C0 2.68 0 1.36 0 0 Z " fill="#F5A71A" transform="translate(1680,394)"/>
<path d="M0 0 C10.89 0 21.78 0 33 0 C33 0.33 33 0.66 33 1 C22.44 1 11.88 1 1 1 C1 347.17 1 693.34 1 1050 C11.23 1050 21.46 1050 32 1050 C32 1050.33 32 1050.66 32 1051 C27.71 1051 23.42 1051 19 1051 C19 1051.66 19 1052.32 19 1053 C16.41603321 1053.08112454 13.83462432 1053.14054748 11.25 1053.1875 C10.15558594 1053.22520508 10.15558594 1053.22520508 9.0390625 1053.26367188 C6.00494306 1053.30504623 3.54439327 1053.26431715 0.78748481 1051.92576609 C-1.89449181 1049.03630957 -1.49594773 1046.78942236 -1.49038196 1042.89477378 C-1.49700883 1041.79529936 -1.49700883 1041.79529936 -1.50376958 1040.67361333 C-1.51376387 1038.19291865 -1.49498717 1035.71325254 -1.47657394 1033.23261738 C-1.4778235 1031.43841952 -1.48082994 1029.64422216 -1.48544365 1027.8500298 C-1.49306028 1022.88223092 -1.47550533 1017.9147811 -1.45412556 1012.94703393 C-1.43529905 1007.55678947 -1.43959149 1002.16655749 -1.44103646 996.77628726 C-1.44034786 987.31687523 -1.42470671 977.85757797 -1.39944649 968.39820099 C-1.36195206 954.33234163 -1.34728759 940.26652428 -1.33741068 926.20062174 C-1.32014632 902.54274321 -1.28423256 878.88492836 -1.2377243 855.22709084 C-1.19171223 831.79282087 -1.15396194 808.35856141 -1.12732697 784.92426109 C-1.12649651 784.19691709 -1.12566606 783.46957309 -1.12481044 782.72018837 C-1.1172301 776.07717918 -1.10975183 769.43416988 -1.10239606 762.79116044 C-1.08410786 746.27618864 -1.06453913 729.76121848 -1.04410172 713.2462492 C-1.04317199 712.49413151 -1.04224227 711.74201383 -1.04128437 710.96710469 C-0.99592896 674.36648086 -0.93582131 637.76588321 -0.87451172 601.1652832 C-0.85323981 588.46148704 -0.83203306 575.75769077 -0.81109619 563.05389404 C-0.80979765 562.26602067 -0.8084991 561.47814729 -0.80716121 560.66639896 C-0.74690275 524.05121858 -0.697113 487.43602614 -0.6500297 450.82082672 C-0.64697344 448.44421279 -0.64391266 446.06759887 -0.64085096 443.69098494 C-0.62056839 427.94125409 -0.6004664 412.191523 -0.58048532 396.44179176 C-0.54072516 365.10280237 -0.49990393 333.76381439 -0.4583539 302.42482733 C-0.45637512 300.93232854 -0.45439708 299.43982974 -0.45241978 297.94733095 C-0.34270222 215.1363651 -0.21366028 132.32543074 0 0 Z " fill="#2C1B06" transform="translate(1421,623)"/>
<path d="M0 0 C0.33 0 0.66 0 1 0 C1.33 303.6 1.66 607.2 2 920 C2.99 920 3.98 920 5 920 C5 918.02 5 916.04 5 914 C5.66 914 6.32 914 7 914 C7 915.98 7 917.96 7 920 C13.6 920 20.2 920 27 920 C27 918.02 27 916.04 27 914 C27.33 914 27.66 914 28 914 C28 916.31 28 918.62 28 921 C19.13997743 923.95334086 9.33928382 922 0 922 C0 617.74 0 313.48 0 0 Z " fill="#EDA82F" transform="translate(1191,750)"/>
<path d="M0 0 C0.66 0 1.32 0 2 0 C2.33 1.65 2.66 3.3 3 5 C2.34 5 1.68 5 1 5 C1 5.66 1 6.32 1 7 C0.34 7 -0.32 7 -1 7 C-1 6.34 -1 5.68 -1 5 C-133 5 -265 5 -401 5 C-400.67 4.34 -400.34 3.68 -400 3 C-399.34 3 -398.68 3 -398 3 C-397.67 2.34 -397.34 1.68 -397 1 C-396.38870141 1.07071429 -395.77740282 1.14142858 -395.14758003 1.21428573 C-386.84424601 2.08040949 -378.58380506 2.1403421 -370.24661255 2.12698364 C-368.6691331 2.1281376 -367.09165392 2.12972696 -365.5141753 2.13171089 C-361.20467422 2.13586621 -356.89519544 2.13383078 -352.58569431 2.13072467 C-347.92862361 2.12845539 -343.27155665 2.13195771 -338.61448669 2.13470459 C-329.5029492 2.13914429 -320.39141996 2.138194 -311.27988215 2.13529195 C-303.87648686 2.13303168 -296.47309387 2.1327281 -289.06969833 2.13381577 C-288.0152197 2.133969 -286.96074108 2.13412223 -285.87430855 2.13428011 C-283.73209708 2.13459984 -281.58988561 2.13492405 -279.44767414 2.1352527 C-259.37647641 2.138102 -239.30528324 2.13482865 -219.23408626 2.12945233 C-202.0072922 2.12498089 -184.78050488 2.12576409 -167.55371094 2.13037109 C-147.5440144 2.13571983 -127.53432186 2.13783147 -107.52462471 2.13475883 C-105.39221883 2.13444028 -103.25981295 2.13412591 -101.12740707 2.13381577 C-100.07822949 2.13366149 -99.0290519 2.13350721 -97.94808105 2.13334826 C-90.54941273 2.1324843 -83.15074694 2.13394331 -75.75207901 2.13629532 C-66.74210652 2.13909665 -57.73214275 2.13834781 -48.72217126 2.13301457 C-44.12411548 2.1303827 -39.52607425 2.12936391 -34.92801857 2.13266373 C-30.72155758 2.13563695 -26.51512465 2.13401667 -22.30866621 2.12868617 C-20.7846903 2.12756644 -19.26071203 2.12814339 -17.73673762 2.13056196 C-15.66936808 2.13359202 -13.60209536 2.13049437 -11.53473091 2.12584114 C-10.38520475 2.12567879 -9.23567858 2.12551644 -8.05131829 2.12534916 C-5.24973736 2.01025929 -2.72405027 1.64095121 0 1 C0 0.67 0 0.34 0 0 Z " fill="#89C18C" transform="translate(707,272)"/>
<path d="M0 0 C0 3 0 3 -1.53888702 4.91148251 C-2.26795006 5.63940639 -2.99701309 6.36733026 -3.74816895 7.11731243 C-4.58418388 7.95930052 -5.42019882 8.8012886 -6.28154755 9.66879147 C-7.21537514 10.59388054 -8.14920273 11.51896961 -9.11132812 12.47209167 C-10.10192183 13.46399257 -11.09185648 14.45655202 -12.08118439 15.44971544 C-14.81083896 18.18610403 -17.54980387 20.91300722 -20.29031754 23.6385144 C-23.24053859 26.57582127 -26.18212732 29.52175 -29.12475586 32.46665955 C-34.22728295 37.5707623 -39.33528909 42.66932863 -44.44702148 47.76421165 C-51.83778359 55.130628 -59.22028138 62.50528082 -66.60076618 69.88199238 C-78.57434057 81.84899533 -90.55460391 93.80927873 -102.5390625 105.76538086 C-114.18319414 117.38198984 -125.82418148 129.00173483 -137.4609375 140.62573242 C-138.17781644 141.34182319 -138.89469538 142.05791396 -139.63329792 142.79570445 C-143.22952655 146.38801806 -146.82569328 149.98039364 -150.42182922 153.57280004 C-180.27162706 183.39148041 -210.13227663 213.19927536 -240 243 C-240.66 242.67 -241.32 242.34 -242 242 C-240.07864337 238.44549024 -238.38076164 236.21862482 -235 234 C-233.515 233.01 -233.515 233.01 -232 232 C-232 231.01 -232 230.02 -232 229 C-231.01 228.67 -230.02 228.34 -229 228 C-228.01 227.01 -228.01 227.01 -227 226 C-225.515 225.01 -225.515 225.01 -224 224 C-224 223.01 -224 222.02 -224 221 C-223.01 220.67 -222.02 220.34 -221 220 C-220.01 219.01 -220.01 219.01 -219 218 C-217.515 217.01 -217.515 217.01 -216 216 C-216 215.01 -216 214.02 -216 213 C-215.01 212.67 -214.02 212.34 -213 212 C-212.01 211.01 -212.01 211.01 -211 210 C-209.515 209.01 -209.515 209.01 -208 208 C-208 207.01 -208 206.02 -208 205 C-207.01 204.67 -206.02 204.34 -205 204 C-204.34 203.34 -203.68 202.68 -203 202 C-202.01 201.34 -201.02 200.68 -200 200 C-200 199.01 -200 198.02 -200 197 C-199.01 196.67 -198.02 196.34 -197 196 C-196.34 195.34 -195.68 194.68 -195 194 C-194.01 193.34 -193.02 192.68 -192 192 C-192 191.01 -192 190.02 -192 189 C-191.01 188.67 -190.02 188.34 -189 188 C-188.34 187.34 -187.68 186.68 -187 186 C-186.01 185.34 -185.02 184.68 -184 184 C-184 183.01 -184 182.02 -184 181 C-183.01 180.67 -182.02 180.34 -181 180 C-180.34 179.34 -179.68 178.68 -179 178 C-177.515 177.01 -177.515 177.01 -176 176 C-176 175.01 -176 174.02 -176 173 C-175.01 172.67 -174.02 172.34 -173 172 C-172.34 171.34 -171.68 170.68 -171 170 C-170.01 169.34 -169.02 168.68 -168 168 C-168 167.01 -168 166.02 -168 165 C-167.01 164.67 -166.02 164.34 -165 164 C-164.34 163.34 -163.68 162.68 -163 162 C-162.01 161.34 -161.02 160.68 -160 160 C-160 159.01 -160 158.02 -160 157 C-159.01 156.67 -158.02 156.34 -157 156 C-156.34 155.34 -155.68 154.68 -155 154 C-154.01 153.34 -153.02 152.68 -152 152 C-152 151.01 -152 150.02 -152 149 C-151.01 148.67 -150.02 148.34 -149 148 C-148.34 147.34 -147.68 146.68 -147 146 C-146.01 145.34 -145.02 144.68 -144 144 C-144 143.01 -144 142.02 -144 141 C-143.01 140.67 -142.02 140.34 -141 140 C-140.34 139.34 -139.68 138.68 -139 138 C-138.01 137.34 -137.02 136.68 -136 136 C-136 135.01 -136 134.02 -136 133 C-135.01 132.67 -134.02 132.34 -133 132 C-132.34 131.34 -131.68 130.68 -131 130 C-130.01 129.34 -129.02 128.68 -128 128 C-128 127.01 -128 126.02 -128 125 C-127.01 124.67 -126.02 124.34 -125 124 C-124.34 123.34 -123.68 122.68 -123 122 C-122.01 121.34 -121.02 120.68 -120 120 C-120 119.01 -120 118.02 -120 117 C-119.01 116.67 -118.02 116.34 -117 116 C-116.34 115.34 -115.68 114.68 -115 114 C-114.01 113.34 -113.02 112.68 -112 112 C-112 111.01 -112 110.02 -112 109 C-111.01 108.67 -110.02 108.34 -109 108 C-108.34 107.34 -107.68 106.68 -107 106 C-106.01 105.34 -105.02 104.68 -104 104 C-104 103.01 -104 102.02 -104 101 C-103.01 100.67 -102.02 100.34 -101 100 C-100.34 99.34 -99.68 98.68 -99 98 C-98.01 97.34 -97.02 96.68 -96 96 C-96 95.01 -96 94.02 -96 93 C-95.01 92.67 -94.02 92.34 -93 92 C-92.34 91.34 -91.68 90.68 -91 90 C-90.01 89.34 -89.02 88.68 -88 88 C-88 87.01 -88 86.02 -88 85 C-87.01 84.67 -86.02 84.34 -85 84 C-84.34 83.34 -83.68 82.68 -83 82 C-82.01 81.34 -81.02 80.68 -80 80 C-80 79.01 -80 78.02 -80 77 C-79.01 76.67 -78.02 76.34 -77 76 C-76.34 75.34 -75.68 74.68 -75 74 C-74.01 73.34 -73.02 72.68 -72 72 C-72 71.01 -72 70.02 -72 69 C-71.01 68.67 -70.02 68.34 -69 68 C-68.34 67.34 -67.68 66.68 -67 66 C-66.01 65.34 -65.02 64.68 -64 64 C-64 63.01 -64 62.02 -64 61 C-63.01 60.67 -62.02 60.34 -61 60 C-60.01 59.01 -60.01 59.01 -59 58 C-58.01 57.34 -57.02 56.68 -56 56 C-56 55.01 -56 54.02 -56 53 C-55.01 52.67 -54.02 52.34 -53 52 C-52.01 51.01 -52.01 51.01 -51 50 C-50.01 49.34 -49.02 48.68 -48 48 C-48 47.01 -48 46.02 -48 45 C-47.01 44.67 -46.02 44.34 -45 44 C-44.01 43.01 -44.01 43.01 -43 42 C-42.01 41.34 -41.02 40.68 -40 40 C-40 39.01 -40 38.02 -40 37 C-39.01 36.67 -38.02 36.34 -37 36 C-36.01 35.01 -36.01 35.01 -35 34 C-34.01 33.34 -33.02 32.68 -32 32 C-32 31.01 -32 30.02 -32 29 C-31.01 28.67 -30.02 28.34 -29 28 C-28.34 27.34 -27.68 26.68 -27 26 C-26.01 25.34 -25.02 24.68 -24 24 C-24 23.01 -24 22.02 -24 21 C-23.01 20.67 -22.02 20.34 -21 20 C-20.34 19.34 -19.68 18.68 -19 18 C-18.01 17.34 -17.02 16.68 -16 16 C-16 15.01 -16 14.02 -16 13 C-15.01 12.67 -14.02 12.34 -13 12 C-12.34 11.34 -11.68 10.68 -11 10 C-10.01 9.34 -9.02 8.68 -8 8 C-8 7.01 -8 6.02 -8 5 C-7.01 4.67 -6.02 4.34 -5 4 C-4.34 3.34 -3.68 2.68 -3 2 C-2.01 1.34 -1.02 0.68 0 0 Z " fill="#87C08D" transform="translate(764,259)"/>
<path d="M0 0 C175.89 0 351.78 0 533 0 C533 0.33 533 0.66 533 1 C531.33481306 1.00203479 531.33481306 1.00203479 529.63598597 1.00411069 C480.73366467 1.06399836 431.83134732 1.12634681 382.92904663 1.20132446 C382.18921054 1.20245809 381.44937444 1.20359171 380.68711907 1.20475969 C364.61022492 1.22940855 348.5333315 1.25450131 332.45643876 1.28005161 C324.57284732 1.29257796 316.68925573 1.30500617 308.80566406 1.31738281 C308.02113317 1.31861614 307.23660227 1.31984946 306.42829771 1.32112016 C280.97883295 1.36108205 255.52936467 1.39455815 230.07988653 1.42468691 C203.9370372 1.45567066 177.79420515 1.49316559 151.65137728 1.53890612 C147.96268765 1.54535695 144.27399791 1.55173299 140.58530807 1.55806351 C139.85928892 1.55931181 139.13326976 1.56056012 138.38525003 1.56184625 C126.67718954 1.58178426 114.96913097 1.59481579 103.26105863 1.60529328 C91.50330909 1.61596156 79.74558992 1.63399968 67.98786236 1.65916704 C61.61206794 1.67259591 55.23631158 1.68270676 48.86050224 1.68421364 C43.0327591 1.68566143 37.2051078 1.69616963 31.37739281 1.71413441 C29.26028354 1.71901646 27.14316323 1.72046511 25.02604945 1.71827881 C22.16566052 1.71580818 19.30556999 1.72542537 16.44521523 1.73828697 C15.6081879 1.73463729 14.77116057 1.73098761 13.90876877 1.72722733 C9.48414338 1.58024337 9.48414338 1.58024337 6 4 C5.01 4 4.02 4 3 4 C2.01 2.68 1.02 1.36 0 0 Z " fill="#8ABF8C" transform="translate(235,248)"/>
<path d="M0 0 C130.68 0 261.36 0 396 0 C396 0.33 396 0.66 396 1 C395.16855469 1.06058594 394.33710937 1.12117188 393.48046875 1.18359375 C391.85044922 1.30927734 391.85044922 1.30927734 390.1875 1.4375 C389.10855469 1.51871094 388.02960938 1.59992188 386.91796875 1.68359375 C383.94010095 1.90212461 383.94010095 1.90212461 381 3 C380.67 2.67 380.34 2.34 380 2 C378.05518792 1.9004643 376.10670087 1.87259941 374.15934372 1.87136555 C372.24337312 1.86652888 372.24337312 1.86652888 370.28869605 1.8615945 C368.85268122 1.86306596 367.41666649 1.86463371 365.98065186 1.86628723 C364.46954995 1.86442112 362.95844853 1.86212123 361.44734788 1.85942191 C357.27487724 1.8532725 353.10242653 1.85344117 348.92995238 1.85461628 C344.43766832 1.85481951 339.94539079 1.849309 335.45310974 1.84455872 C326.64367022 1.83623399 317.83423738 1.83350304 309.02479425 1.83294634 C301.86620148 1.83247196 294.70761093 1.83042112 287.54901886 1.82724571 C267.27138128 1.81843351 246.993749 1.81382712 226.71610948 1.81457619 C225.07458695 1.81463612 225.07458695 1.81463612 223.39990234 1.81469727 C222.30422378 1.81473815 221.20854521 1.81477903 220.07966426 1.81482115 C202.32278164 1.81522759 184.56592022 1.80566 166.80904374 1.7915589 C148.59431654 1.77720792 130.37959969 1.77028804 112.16486669 1.77115268 C101.93156493 1.77148513 91.69828539 1.76871703 81.46498871 1.75797462 C72.75120937 1.74888633 64.03746232 1.74668051 55.32368031 1.75348405 C50.87554604 1.75675797 46.42747377 1.75677468 41.97934532 1.7481308 C37.90938869 1.74030302 33.8395436 1.74165889 29.76958981 1.75041493 C28.29511201 1.75195819 26.82062605 1.75010288 25.34615788 1.74455485 C23.34545669 1.73752383 21.34472162 1.74396613 19.34402084 1.75111103 C18.23160263 1.75089366 17.11918441 1.75067629 15.97305655 1.75045234 C12.94031354 2.00500987 10.74272813 2.71639404 8 4 C8 4.99 8 5.98 8 7 C6.25 6.875 6.25 6.875 4 6 C2.68 4.02 1.36 2.04 0 0 Z " fill="#09210C" transform="translate(308,278)"/>
<path d="M0 0 C9.9 0 19.8 0 30 0 C30 0.66 30 1.32 30 2 C28.68 2 27.36 2 26 2 C25.67 2.99 25.34 3.98 25 5 C20.38 5 15.76 5 11 5 C10.67 4.34 10.34 3.68 10 3 C7.64400765 2.53248212 7.64400765 2.53248212 4.9375 2.375 C4.01839844 2.30023437 3.09929687 2.22546875 2.15234375 2.1484375 C1.44207031 2.09945313 0.73179688 2.05046875 0 2 C0 1.34 0 0.68 0 0 Z " fill="#1F160B" transform="translate(1190,1673)"/>
<path d="M0 0 C1.32 0.33 2.64 0.66 4 1 C-3.26 8.26 -10.52 15.52 -18 23 C-19 20 -19 20 -18 17 C-16.68 17 -15.36 17 -14 17 C-13.9175 16.4225 -13.835 15.845 -13.75 15.25 C-12.774018 12.32205399 -11.36488777 10.94755463 -9 9 C-8.01 9 -7.02 9 -6 9 C-5.938125 8.2575 -5.87625 7.515 -5.8125 6.75 C-4.73462887 3.10182081 -3.2175115 1.94547207 0 0 Z " fill="#19321C" transform="translate(700,279)"/>
<path d="M0 0 C0.33 0 0.66 0 1 0 C1.33 2.64 1.66 5.28 2 8 C12.23 8.33 22.46 8.66 33 9 C33 9.33 33 9.66 33 10 C28.71 10 24.42 10 20 10 C20 10.66 20 11.32 20 12 C17.41603321 12.08112454 14.83462432 12.14054748 12.25 12.1875 C11.15558594 12.22520508 11.15558594 12.22520508 10.0390625 12.26367188 C6.83412927 12.30737551 4.40392819 12.19691499 1.5 10.78125 C-0.43449201 8.48404074 -0.42181424 7.27629556 -0.25 4.3125 C-0.21390625 3.50425781 -0.1778125 2.69601562 -0.140625 1.86328125 C-0.09421875 1.24839844 -0.0478125 0.63351562 0 0 Z " fill="#1E1503" transform="translate(1420,1664)"/>
<path d="M0 0 C1.9375 0.6875 1.9375 0.6875 4 2 C4.144375 2.825 4.28875 3.65 4.4375 4.5 C4.623125 5.325 4.80875 6.15 5 7 C6.65438613 7.69658363 8.32254318 8.36096883 10 9 C11.0409066 10.64142963 12.04504326 12.30712215 13 14 C13.99 14.33 14.98 14.66 16 15 C16 15.66 16 16.32 16 17 C19.47998507 20.63633539 19.47998507 20.63633539 24 22 C24 22.99 24 23.98 24 25 C16.53620444 22.73824377 11.73743845 16.85946334 7 11 C5.35259924 9.3142876 3.68933922 7.6436814 2 6 C1.34 5.34 0.68 4.68 0 4 C0 2.68 0 1.36 0 0 Z " fill="#172E17" transform="translate(452,419)"/>
<path d="M0 0 C0.99 0.33 1.98 0.66 3 1 C-1.23816537 6.06623768 -5.67408963 10.80038069 -10.375 15.4375 C-11.01566406 16.07365234 -11.65632812 16.70980469 -12.31640625 17.36523438 C-13.87530879 18.91250332 -15.43651416 20.45736492 -17 22 C-18 19 -18 19 -17 16 C-15.68 16 -14.36 16 -13 16 C-12.8453125 15.1028125 -12.8453125 15.1028125 -12.6875 14.1875 C-11.8899052 11.64969837 -10.93316334 10.78445847 -9 9 C-8.484375 8.278125 -7.96875 7.55625 -7.4375 6.8125 C-6.963125 6.214375 -6.48875 5.61625 -6 5 C-5.34 5 -4.68 5 -4 5 C-2.61767557 3.37373596 -1.28062485 1.7074998 0 0 Z " fill="#19301B" transform="translate(651,328)"/>
<path d="M0 0 C1.0828125 1.11375 1.0828125 1.11375 2.1875 2.25 C4.85872834 4.96694449 4.85872834 4.96694449 7.5 6.9375 C10.42320625 9.34914516 12.60595036 12.0672892 15 15 C15.9075 15.9075 16.815 16.815 17.75 17.75 C20 20 20 20 21 22 C20.34 22.66 19.68 23.32 19 24 C18.9175 23.38125 18.835 22.7625 18.75 22.125 C18.18741541 19.81562433 18.18741541 19.81562433 15.9375 18.75 C15.298125 18.5025 14.65875 18.255 14 18 C14 17.34 14 16.68 14 16 C13.34 16 12.68 16 12 16 C11 15 10 14 9 13 C8.34 13 7.68 13 7 13 C7 12.01 7 11.02 7 10 C6.360625 9.7525 5.72125 9.505 5.0625 9.25 C3 8 3 8 2.25 5.875 C2.1675 5.25625 2.085 4.6375 2 4 C1.34 4 0.68 4 0 4 C0 2.68 0 1.36 0 0 Z " fill="#80B57F" transform="translate(358,329)"/>
<path d="M0 0 C0.83265381 0.00523682 1.66530762 0.01047363 2.52319336 0.01586914 C3.42231445 0.0190918 4.32143555 0.02231445 5.24780273 0.02563477 C6.66609375 0.03820312 6.66609375 0.03820312 8.11303711 0.05102539 C9.06243164 0.05553711 10.01182617 0.06004883 10.98999023 0.06469727 C13.34356776 0.07652429 15.69702188 0.09300514 18.05053711 0.11352539 C18.05053711 0.77352539 18.05053711 1.43352539 18.05053711 2.11352539 C9.63553711 2.60852539 9.63553711 2.60852539 1.05053711 3.11352539 C0.72053711 4.76352539 0.39053711 6.41352539 0.05053711 8.11352539 C-0.93946289 8.11352539 -1.92946289 8.11352539 -2.94946289 8.11352539 C-2.99188012 5.78057764 -2.99039226 3.44649972 -2.94946289 1.11352539 C-1.94946289 0.11352539 -1.94946289 0.11352539 0 0 Z " fill="#F8A733" transform="translate(1197.949462890625,743.886474609375)"/>
<path d="M0 0 C3.84223567 1.50944973 5.51995823 3.76843042 8 7 C9.64783606 8.68528688 11.31002677 10.35697047 13 12 C9 12 9 12 6.75 10 C6.1725 9.34 5.595 8.68 5 8 C4.34 8.66 3.68 9.32 3 10 C1.68 10 0.36 10 -1 10 C-0.62875 9.2575 -0.2575 8.515 0.125 7.75 C1.29515863 5.05716353 1.29515863 5.05716353 0.125 2.6875 C-0.24625 2.130625 -0.6175 1.57375 -1 1 C-0.67 0.67 -0.34 0.34 0 0 Z " fill="#7ABA7C" transform="translate(481,453)"/>
<path d="M0 0 C3.84223567 1.50944973 5.51995823 3.76843042 8 7 C9.64783606 8.68528688 11.31002677 10.35697047 13 12 C9 12 9 12 6.75 10 C6.1725 9.34 5.595 8.68 5 8 C4.34 8.66 3.68 9.32 3 10 C1.68 10 0.36 10 -1 10 C-0.62875 9.2575 -0.2575 8.515 0.125 7.75 C1.29515863 5.05716353 1.29515863 5.05716353 0.125 2.6875 C-0.24625 2.130625 -0.6175 1.57375 -1 1 C-0.67 0.67 -0.34 0.34 0 0 Z " fill="#7ABA7C" transform="translate(465,437)"/>
<path d="M0 0 C3.84223567 1.50944973 5.51995823 3.76843042 8 7 C9.64783606 8.68528688 11.31002677 10.35697047 13 12 C9 12 9 12 6.75 10 C6.1725 9.34 5.595 8.68 5 8 C4.34 8.66 3.68 9.32 3 10 C1.68 10 0.36 10 -1 10 C-0.62875 9.2575 -0.2575 8.515 0.125 7.75 C1.29515863 5.05716353 1.29515863 5.05716353 0.125 2.6875 C-0.24625 2.130625 -0.6175 1.57375 -1 1 C-0.67 0.67 -0.34 0.34 0 0 Z " fill="#7ABA7C" transform="translate(417,389)"/>
<path d="M0 0 C1.32 0.66 2.64 1.32 4 2 C-0.95 6.95 -5.9 11.9 -11 17 C-12 14 -12 14 -11 11 C-9.68 11 -8.36 11 -7 11 C-6.8453125 10.1028125 -6.8453125 10.1028125 -6.6875 9.1875 C-5.8899052 6.64969837 -4.93316334 5.78445847 -3 4 C-1.98199424 2.68036291 -0.97751635 1.34990354 0 0 Z " fill="#19311B" transform="translate(533,445)"/>
<path d="M0 0 C1.32 0.66 2.64 1.32 4 2 C-0.95 6.95 -5.9 11.9 -11 17 C-12 14 -12 14 -11 11 C-9.68 11 -8.36 11 -7 11 C-6.8453125 10.1028125 -6.8453125 10.1028125 -6.6875 9.1875 C-5.8899052 6.64969837 -4.93316334 5.78445847 -3 4 C-1.98199424 2.68036291 -0.97751635 1.34990354 0 0 Z " fill="#19311B" transform="translate(549,429)"/>
<path d="M0 0 C1.32 0.66 2.64 1.32 4 2 C-0.95 6.95 -5.9 11.9 -11 17 C-12 14 -12 14 -11 11 C-9.68 11 -8.36 11 -7 11 C-6.8453125 10.1028125 -6.8453125 10.1028125 -6.6875 9.1875 C-5.8899052 6.64969837 -4.93316334 5.78445847 -3 4 C-1.98199424 2.68036291 -0.97751635 1.34990354 0 0 Z " fill="#19311B" transform="translate(581,397)"/>
<path d="M0 0 C1.32 0.66 2.64 1.32 4 2 C-0.95 6.95 -5.9 11.9 -11 17 C-12 14 -12 14 -11 11 C-9.68 11 -8.36 11 -7 11 C-6.8453125 10.1028125 -6.8453125 10.1028125 -6.6875 9.1875 C-5.8899052 6.64969837 -4.93316334 5.78445847 -3 4 C-1.98199424 2.68036291 -0.97751635 1.34990354 0 0 Z " fill="#19311B" transform="translate(613,365)"/>
<path d="M0 0 C1.32 0.66 2.64 1.32 4 2 C-0.95 6.95 -5.9 11.9 -11 17 C-12 14 -12 14 -11 11 C-9.68 11 -8.36 11 -7 11 C-6.8453125 10.1028125 -6.8453125 10.1028125 -6.6875 9.1875 C-5.8899052 6.64969837 -4.93316334 5.78445847 -3 4 C-1.98199424 2.68036291 -0.97751635 1.34990354 0 0 Z " fill="#19311B" transform="translate(629,349)"/>
<path d="M0 0 C1.32 0.66 2.64 1.32 4 2 C-0.95 6.95 -5.9 11.9 -11 17 C-12 14 -12 14 -11 11 C-9.68 11 -8.36 11 -7 11 C-6.8453125 10.1028125 -6.8453125 10.1028125 -6.6875 9.1875 C-5.8899052 6.64969837 -4.93316334 5.78445847 -3 4 C-1.98199424 2.68036291 -0.97751635 1.34990354 0 0 Z " fill="#19311B" transform="translate(677,301)"/>
<path d="M0 0 C10.11764706 8.23529412 10.11764706 8.23529412 12 12 C8 12 8 12 5.75 10 C5.1725 9.34 4.595 8.68 4 8 C3.34 8.66 2.68 9.32 2 10 C0.68 10 -0.64 10 -2 10 C-1.67 9.278125 -1.34 8.55625 -1 7.8125 C0.00603529 4.98302573 0.16977402 2.97104534 0 0 Z " fill="#79B97B" transform="translate(450,421)"/>
<path d="M0 0 C1.32 0.66 2.64 1.32 4 2 C-0.95 6.95 -5.9 11.9 -11 17 C-12 14 -12 14 -11 11 C-9.68 11 -8.36 11 -7 11 C-6.938125 10.443125 -6.87625 9.88625 -6.8125 9.3125 C-5.66805194 6.05522474 -3.47377916 4.3500902 -1 2 C-0.67 1.34 -0.34 0.68 0 0 Z " fill="#1A321C" transform="translate(565,413)"/>
<path d="M0 0 C1.32 0.66 2.64 1.32 4 2 C-0.95 6.95 -5.9 11.9 -11 17 C-12 14 -12 14 -11 11 C-9.68 11 -8.36 11 -7 11 C-6.938125 10.443125 -6.87625 9.88625 -6.8125 9.3125 C-5.66805194 6.05522474 -3.47377916 4.3500902 -1 2 C-0.67 1.34 -0.34 0.68 0 0 Z " fill="#1A321C" transform="translate(597,381)"/>
<path d="M0 0 C0.99 0.33 1.98 0.66 3 1 C1.52742891 4.88223287 -0.47949708 5.97571082 -4 8 C-4.99 9.485 -4.99 9.485 -6 11 C-6.99 11.33 -7.98 11.66 -9 12 C-10.37195574 13.29355827 -11.71182656 14.62298702 -13 16 C-13 13 -13 13 -11.80664062 11.46606445 C-11.26201172 10.937146 -10.71738281 10.40822754 -10.15625 9.86328125 C-9.56972656 9.28642578 -8.98320313 8.70957031 -8.37890625 8.11523438 C-7.75886719 7.52033203 -7.13882813 6.92542969 -6.5 6.3125 C-5.87996094 5.70599609 -5.25992188 5.09949219 -4.62109375 4.47460938 C-3.08735293 2.97626257 -1.54451802 1.48723507 0 0 Z " fill="#86BB87" transform="translate(565,418)"/>
<path d="M0 0 C0.99 0.33 1.98 0.66 3 1 C1.52742891 4.88223287 -0.47949708 5.97571082 -4 8 C-4.99 9.485 -4.99 9.485 -6 11 C-6.99 11.33 -7.98 11.66 -9 12 C-10.37195574 13.29355827 -11.71182656 14.62298702 -13 16 C-13 13 -13 13 -11.80664062 11.46606445 C-11.26201172 10.937146 -10.71738281 10.40822754 -10.15625 9.86328125 C-9.56972656 9.28642578 -8.98320313 8.70957031 -8.37890625 8.11523438 C-7.75886719 7.52033203 -7.13882813 6.92542969 -6.5 6.3125 C-5.87996094 5.70599609 -5.25992188 5.09949219 -4.62109375 4.47460938 C-3.08735293 2.97626257 -1.54451802 1.48723507 0 0 Z " fill="#86BB87" transform="translate(597,386)"/>
<path d="M0 0 C10.11764706 8.23529412 10.11764706 8.23529412 12 12 C8 12 8 12 5.875 10 C5.25625 9.34 4.6375 8.68 4 8 C3.34 8 2.68 8 2 8 C1.67 8.66 1.34 9.32 1 10 C0.22157062 6.59437148 -0.09978121 3.49234244 0 0 Z " fill="#77AE78" transform="translate(434,405)"/>
<path d="M0 0 C4.51617599 -0.07654536 8.59085217 -0.10228696 13 1 C12.67 1.66 12.34 2.32 12 3 C9.9375 3.625 9.9375 3.625 8 4 C8 4.99 8 5.98 8 7 C6.25 6.875 6.25 6.875 4 6 C1.75 2.9375 1.75 2.9375 0 0 Z " fill="#112214" transform="translate(308,278)"/>
<path d="M0 0 C0.66 0 1.32 0 2 0 C2.33 1.65 2.66 3.3 3 5 C-7.23 4.67 -17.46 4.34 -28 4 C-28 3.34 -28 2.68 -28 2 C-19.09 2 -10.18 2 -1 2 C-0.67 1.34 -0.34 0.68 0 0 Z " fill="#271701" transform="translate(1218,736)"/>
<path d="M0 0 C1.32 0.66 2.64 1.32 4 2 C0.7 5.3 -2.6 8.6 -6 12 C-6.33 10.68 -6.66 9.36 -7 8 C-5.25 6 -5.25 6 -3 4 C-1.97676564 2.68441297 -0.96873032 1.35622245 0 0 Z " fill="#1A301C" transform="translate(661,317)"/>
<path d="M0 0 C9.57 0 19.14 0 29 0 C29 0.99 29 1.98 29 3 C28.01 3 27.02 3 26 3 C26 2.34 26 1.68 26 1 C17.75 1 9.5 1 1 1 C0.67 1.66 0.34 2.32 0 3 C0 2.01 0 1.02 0 0 Z " fill="#8DC08D" transform="translate(725,1091)"/>
<path d="M0 0 C0.66 0 1.32 0 2 0 C2.77916092 5.02125926 3.13016601 8.97703996 2 14 C0.68 14 -0.64 14 -2 14 C-1.67 13.01 -1.34 12.02 -1 11 C-0.77820215 9.10787263 -0.59385985 7.21115528 -0.4375 5.3125 C-0.35371094 4.31863281 -0.26992187 3.32476563 -0.18359375 2.30078125 C-0.12300781 1.54152344 -0.06242187 0.78226563 0 0 Z " fill="#141E09" transform="translate(1186,736)"/>
<path d="M0 0 C1 2 1 2 0.58203125 3.875 C-1.51579094 9.66797093 -1.51579094 9.66797093 -4.1875 11.5 C-4.785625 11.665 -5.38375 11.83 -6 12 C-5.67 10.68 -5.34 9.36 -5 8 C-5.66 7.67 -6.32 7.34 -7 7 C-4.69 4.69 -2.38 2.38 0 0 Z " fill="#1F241E" transform="translate(545,480)"/>
<path d="M0 0 C1 2 1 2 0.58203125 3.875 C-1.51579094 9.66797093 -1.51579094 9.66797093 -4.1875 11.5 C-4.785625 11.665 -5.38375 11.83 -6 12 C-5.67 10.68 -5.34 9.36 -5 8 C-5.66 7.67 -6.32 7.34 -7 7 C-4.69 4.69 -2.38 2.38 0 0 Z " fill="#1F241E" transform="translate(561,464)"/>
<path d="M0 0 C1 2 1 2 0.58203125 3.875 C-1.51579094 9.66797093 -1.51579094 9.66797093 -4.1875 11.5 C-4.785625 11.665 -5.38375 11.83 -6 12 C-5.67 10.68 -5.34 9.36 -5 8 C-5.66 7.67 -6.32 7.34 -7 7 C-4.69 4.69 -2.38 2.38 0 0 Z " fill="#1F241E" transform="translate(577,448)"/>
<path d="M0 0 C1 2 1 2 0.58203125 3.875 C-1.51579094 9.66797093 -1.51579094 9.66797093 -4.1875 11.5 C-4.785625 11.665 -5.38375 11.83 -6 12 C-5.67 10.68 -5.34 9.36 -5 8 C-5.66 7.67 -6.32 7.34 -7 7 C-4.69 4.69 -2.38 2.38 0 0 Z " fill="#1F241E" transform="translate(593,432)"/>
<path d="M0 0 C1 2 1 2 0.58203125 3.875 C-1.51579094 9.66797093 -1.51579094 9.66797093 -4.1875 11.5 C-4.785625 11.665 -5.38375 11.83 -6 12 C-5.67 10.68 -5.34 9.36 -5 8 C-5.66 7.67 -6.32 7.34 -7 7 C-4.69 4.69 -2.38 2.38 0 0 Z " fill="#1F241E" transform="translate(609,416)"/>
<path d="M0 0 C1 2 1 2 0.58203125 3.875 C-1.51579094 9.66797093 -1.51579094 9.66797093 -4.1875 11.5 C-4.785625 11.665 -5.38375 11.83 -6 12 C-5.67 10.68 -5.34 9.36 -5 8 C-5.66 7.67 -6.32 7.34 -7 7 C-4.69 4.69 -2.38 2.38 0 0 Z " fill="#1F241E" transform="translate(625,400)"/>
<path d="M0 0 C1 2 1 2 0.58203125 3.875 C-1.51579094 9.66797093 -1.51579094 9.66797093 -4.1875 11.5 C-4.785625 11.665 -5.38375 11.83 -6 12 C-5.67 10.68 -5.34 9.36 -5 8 C-5.66 7.67 -6.32 7.34 -7 7 C-4.69 4.69 -2.38 2.38 0 0 Z " fill="#1F241E" transform="translate(641,384)"/>
<path d="M0 0 C1 2 1 2 0.58203125 3.875 C-1.51579094 9.66797093 -1.51579094 9.66797093 -4.1875 11.5 C-4.785625 11.665 -5.38375 11.83 -6 12 C-5.67 10.68 -5.34 9.36 -5 8 C-5.66 7.67 -6.32 7.34 -7 7 C-4.69 4.69 -2.38 2.38 0 0 Z " fill="#1F241E" transform="translate(657,368)"/>
<path d="M0 0 C1 2 1 2 0.58203125 3.875 C-1.51579094 9.66797093 -1.51579094 9.66797093 -4.1875 11.5 C-4.785625 11.665 -5.38375 11.83 -6 12 C-5.67 10.68 -5.34 9.36 -5 8 C-5.66 7.67 -6.32 7.34 -7 7 C-4.69 4.69 -2.38 2.38 0 0 Z " fill="#1F241E" transform="translate(673,352)"/>
<path d="M0 0 C1 2 1 2 0.58203125 3.875 C-1.51579094 9.66797093 -1.51579094 9.66797093 -4.1875 11.5 C-4.785625 11.665 -5.38375 11.83 -6 12 C-5.67 10.68 -5.34 9.36 -5 8 C-5.66 7.67 -6.32 7.34 -7 7 C-4.69 4.69 -2.38 2.38 0 0 Z " fill="#1F241E" transform="translate(689,336)"/>
<path d="M0 0 C1 2 1 2 0.58203125 3.875 C-1.51579094 9.66797093 -1.51579094 9.66797093 -4.1875 11.5 C-4.785625 11.665 -5.38375 11.83 -6 12 C-5.67 10.68 -5.34 9.36 -5 8 C-5.66 7.67 -6.32 7.34 -7 7 C-4.69 4.69 -2.38 2.38 0 0 Z " fill="#1F241E" transform="translate(705,320)"/>
<path d="M0 0 C1 2 1 2 0.58203125 3.875 C-1.51579094 9.66797093 -1.51579094 9.66797093 -4.1875 11.5 C-4.785625 11.665 -5.38375 11.83 -6 12 C-5.67 10.68 -5.34 9.36 -5 8 C-5.66 7.67 -6.32 7.34 -7 7 C-4.69 4.69 -2.38 2.38 0 0 Z " fill="#1F241E" transform="translate(721,304)"/>
<path d="M0 0 C1 2 1 2 0.58203125 3.875 C-1.51579094 9.66797093 -1.51579094 9.66797093 -4.1875 11.5 C-4.785625 11.665 -5.38375 11.83 -6 12 C-5.67 10.68 -5.34 9.36 -5 8 C-5.66 7.67 -6.32 7.34 -7 7 C-4.69 4.69 -2.38 2.38 0 0 Z " fill="#1F241E" transform="translate(737,288)"/>
<path d="M0 0 C1 2 1 2 0.58203125 3.875 C-1.51579094 9.66797093 -1.51579094 9.66797093 -4.1875 11.5 C-4.785625 11.665 -5.38375 11.83 -6 12 C-5.67 10.68 -5.34 9.36 -5 8 C-5.66 7.67 -6.32 7.34 -7 7 C-4.69 4.69 -2.38 2.38 0 0 Z " fill="#1F241E" transform="translate(753,272)"/>
<path d="M0 0 C1 2 1 2 0.58203125 3.875 C-1.51579094 9.66797093 -1.51579094 9.66797093 -4.1875 11.5 C-4.785625 11.665 -5.38375 11.83 -6 12 C-5.67 10.68 -5.34 9.36 -5 8 C-5.66 7.67 -6.32 7.34 -7 7 C-4.69 4.69 -2.38 2.38 0 0 Z " fill="#1F241E" transform="translate(769,256)"/>
<path d="M0 0 C5.1209587 3.37983274 9.49192373 6.8985118 13 12 C13 12.66 13 13.32 13 14 C12.34 14 11.68 14 11 14 C11 13.34 11 12.68 11 12 C10.34 12 9.68 12 9 12 C4.23255814 7.69767442 4.23255814 7.69767442 3 4 C2.34 4 1.68 4 1 4 C1 3.34 1 2.68 1 2 C0.34 1.67 -0.32 1.34 -1 1 C-0.67 0.67 -0.34 0.34 0 0 Z " fill="#83B883" transform="translate(321,293)"/>
<path d="M0 0 C3.3503698 0.57764997 4.68233772 1.58576846 7 4 C9.09989652 5.17574711 9.09989652 5.17574711 11 6 C10.34 7.32 9.68 8.64 9 10 C8.443125 9.278125 7.88625 8.55625 7.3125 7.8125 C5.02090666 5.02542701 2.58540143 2.51358472 0 0 Z " fill="#1C341D" transform="translate(314,285)"/>
<path d="M0 0 C0.33 0.66 0.66 1.32 1 2 C0.0625 4.125 0.0625 4.125 -1 6 C-1.66 6 -2.32 6 -3 6 C-3 6.66 -3 7.32 -3 8 C-5.5 9.625 -5.5 9.625 -8 11 C-8 8 -8 8 -6.25 5.95703125 C-5.5075 5.24933594 -4.765 4.54164063 -4 3.8125 C-2.88625 2.73935547 -2.88625 2.73935547 -1.75 1.64453125 C-1.1725 1.10183594 -0.595 0.55914062 0 0 Z " fill="#86B986" transform="translate(528,455)"/>
<path d="M0 0 C0.33 0.66 0.66 1.32 1 2 C0.0625 4.125 0.0625 4.125 -1 6 C-1.66 6 -2.32 6 -3 6 C-3 6.66 -3 7.32 -3 8 C-5.5 9.625 -5.5 9.625 -8 11 C-8 8 -8 8 -6.25 5.95703125 C-5.5075 5.24933594 -4.765 4.54164063 -4 3.8125 C-2.88625 2.73935547 -2.88625 2.73935547 -1.75 1.64453125 C-1.1725 1.10183594 -0.595 0.55914062 0 0 Z " fill="#86B986" transform="translate(544,439)"/>
<path d="M0 0 C0.33 0.66 0.66 1.32 1 2 C0.0625 4.125 0.0625 4.125 -1 6 C-1.66 6 -2.32 6 -3 6 C-3 6.66 -3 7.32 -3 8 C-5.5 9.625 -5.5 9.625 -8 11 C-8 8 -8 8 -6.25 5.95703125 C-5.5075 5.24933594 -4.765 4.54164063 -4 3.8125 C-2.88625 2.73935547 -2.88625 2.73935547 -1.75 1.64453125 C-1.1725 1.10183594 -0.595 0.55914062 0 0 Z " fill="#86B986" transform="translate(576,407)"/>
<path d="M0 0 C0.33 0.66 0.66 1.32 1 2 C0.0625 4.125 0.0625 4.125 -1 6 C-1.66 6 -2.32 6 -3 6 C-3 6.66 -3 7.32 -3 8 C-5.5 9.625 -5.5 9.625 -8 11 C-8 8 -8 8 -6.25 5.95703125 C-5.5075 5.24933594 -4.765 4.54164063 -4 3.8125 C-2.88625 2.73935547 -2.88625 2.73935547 -1.75 1.64453125 C-1.1725 1.10183594 -0.595 0.55914062 0 0 Z " fill="#86B986" transform="translate(608,375)"/>
<path d="M0 0 C0.33 0.66 0.66 1.32 1 2 C0.0625 4.125 0.0625 4.125 -1 6 C-1.66 6 -2.32 6 -3 6 C-3 6.66 -3 7.32 -3 8 C-5.5 9.625 -5.5 9.625 -8 11 C-8 8 -8 8 -6.25 5.95703125 C-5.5075 5.24933594 -4.765 4.54164063 -4 3.8125 C-2.88625 2.73935547 -2.88625 2.73935547 -1.75 1.64453125 C-1.1725 1.10183594 -0.595 0.55914062 0 0 Z " fill="#86B986" transform="translate(624,359)"/>
<path d="M0 0 C0.33 0.66 0.66 1.32 1 2 C0.0625 4.125 0.0625 4.125 -1 6 C-1.66 6 -2.32 6 -3 6 C-3 6.66 -3 7.32 -3 8 C-5.5 9.625 -5.5 9.625 -8 11 C-8 8 -8 8 -6.25 5.95703125 C-5.5075 5.24933594 -4.765 4.54164063 -4 3.8125 C-2.88625 2.73935547 -2.88625 2.73935547 -1.75 1.64453125 C-1.1725 1.10183594 -0.595 0.55914062 0 0 Z " fill="#86B986" transform="translate(640,343)"/>
<path d="M0 0 C0.33 0.66 0.66 1.32 1 2 C0.0625 4.125 0.0625 4.125 -1 6 C-1.66 6 -2.32 6 -3 6 C-3 6.66 -3 7.32 -3 8 C-5.5 9.625 -5.5 9.625 -8 11 C-8 8 -8 8 -6.25 5.95703125 C-5.5075 5.24933594 -4.765 4.54164063 -4 3.8125 C-2.88625 2.73935547 -2.88625 2.73935547 -1.75 1.64453125 C-1.1725 1.10183594 -0.595 0.55914062 0 0 Z " fill="#86B986" transform="translate(672,311)"/>
<path d="M0 0 C0.33 0.66 0.66 1.32 1 2 C0.0625 4.125 0.0625 4.125 -1 6 C-1.66 6 -2.32 6 -3 6 C-3 6.66 -3 7.32 -3 8 C-5.5 9.625 -5.5 9.625 -8 11 C-8 8 -8 8 -6.25 5.95703125 C-5.5075 5.24933594 -4.765 4.54164063 -4 3.8125 C-2.88625 2.73935547 -2.88625 2.73935547 -1.75 1.64453125 C-1.1725 1.10183594 -0.595 0.55914062 0 0 Z " fill="#86B986" transform="translate(688,295)"/>
<path d="M0 0 C0.598125 0.20625 1.19625 0.4125 1.8125 0.625 C1.8125 1.615 1.8125 2.605 1.8125 3.625 C0.8225 4.285 -0.1675 4.945 -1.1875 5.625 C-1.5175 5.295 -1.8475 4.965 -2.1875 4.625 C-2.8475 5.285 -3.5075 5.945 -4.1875 6.625 C-4.5175 4.975 -4.8475 3.325 -5.1875 1.625 C-2.1875 -0.375 -2.1875 -0.375 0 0 Z " fill="#77BD79" transform="translate(245.1875,249.375)"/>
<path d="M0 0 C1.32 0 2.64 0 4 0 C4 0.99 4 1.98 4 3 C5.65 3.33 7.3 3.66 9 4 C9.33 5.98 9.66 7.96 10 10 C2.51708428 3.84965831 2.51708428 3.84965831 0 0 Z " fill="#1D361D" transform="translate(378,349)"/>
<path d="M0 0 C3.9018921 0.57805809 6.13461258 2.355027 9 5 C10.8125 7.75 10.8125 7.75 12 10 C7.32307692 8.52307692 7.32307692 8.52307692 5.6875 5.875 C5.3471875 4.946875 5.3471875 4.946875 5 4 C4.34 4 3.68 4 3 4 C3 3.34 3 2.68 3 2 C2.01 2 1.02 2 0 2 C0 1.34 0 0.68 0 0 Z " fill="#81B680" transform="translate(335,309)"/>
<path d="M0 0 C1.32 0 2.64 0 4 0 C4 0.99 4 1.98 4 3 C5.65 3.33 7.3 3.66 9 4 C9.33 5.98 9.66 7.96 10 10 C2.51708428 3.84965831 2.51708428 3.84965831 0 0 Z " fill="#1E371E" transform="translate(330,301)"/>
<path d="M0 0 C1.32 0.66 2.64 1.32 4 2 C1.69 4.31 -0.62 6.62 -3 9 C-4 6 -4 6 -3 3 C-1.4375 1.3125 -1.4375 1.3125 0 0 Z " fill="#1A311B" transform="translate(517,461)"/>
<path d="M0 0 C0.99 0.495 0.99 0.495 2 1 C2 1.66 2 2.32 2 3 C5.47998507 6.63633539 5.47998507 6.63633539 10 8 C10 8.99 10 9.98 10 11 C5.57165324 9.60823388 2.96898547 7.56278256 0 4 C0 2.68 0 1.36 0 0 Z " fill="#0D210E" transform="translate(482,449)"/>
<path d="M0 0 C0.99 0.495 0.99 0.495 2 1 C2 1.66 2 2.32 2 3 C5.47998507 6.63633539 5.47998507 6.63633539 10 8 C10 8.99 10 9.98 10 11 C5.57165324 9.60823388 2.96898547 7.56278256 0 4 C0 2.68 0 1.36 0 0 Z " fill="#0D210E" transform="translate(466,433)"/>
<path d="M0 0 C0.99 0.495 0.99 0.495 2 1 C2 1.66 2 2.32 2 3 C5.47998507 6.63633539 5.47998507 6.63633539 10 8 C10 8.99 10 9.98 10 11 C5.57165324 9.60823388 2.96898547 7.56278256 0 4 C0 2.68 0 1.36 0 0 Z " fill="#0D210E" transform="translate(418,385)"/>
<path d="M0 0 C1.65 0 3.3 0 5 0 C-1.15034169 7.48291572 -1.15034169 7.48291572 -5 10 C-4.75 7.625 -4.75 7.625 -4 5 C-1.9375 3.6875 -1.9375 3.6875 0 3 C0 2.01 0 1.02 0 0 Z " fill="#88BD90" transform="translate(772,248)"/>
<path d="M0 0 C3.57104439 1.87949705 5.54744301 3.17053157 7 7 C3.85262818 6.30058404 0.97411124 5.23921302 -2 4 C-2 3.34 -2 2.68 -2 2 C-1.34 2 -0.68 2 0 2 C0 1.34 0 0.68 0 0 Z " fill="#223521" transform="translate(397,411)"/>
<path d="M0 0 C-1.68284111 4.91907402 -3.70604747 6.13736498 -8 9 C-8.66 8.67 -9.32 8.34 -10 8 C-8.71451591 6.66070495 -7.42141845 5.32871357 -6.125 4 C-5.04605469 2.88625 -5.04605469 2.88625 -3.9453125 1.75 C-2 0 -2 0 0 0 Z " fill="#86B889" transform="translate(705,280)"/>
<path d="M0 0 C2.475 0.495 2.475 0.495 5 1 C5 2.32 5 3.64 5 5 C6.92022703 6.77409808 6.92022703 6.77409808 9 8 C8.67 8.66 8.34 9.32 8 10 C6.65787938 8.90653119 5.32652025 7.7998425 4 6.6875 C3.2575 6.07261719 2.515 5.45773437 1.75 4.82421875 C0 3 0 3 0 0 Z " fill="#87BC86" transform="translate(242,253)"/>
<path d="M0 0 C3.25543229 0.34879632 4.01873107 1.02133261 6.25 3.5625 C6.8275 4.366875 7.405 5.17125 8 6 C6.68 6.33 5.36 6.66 4 7 C2.02 3.535 2.02 3.535 0 0 Z " fill="#152C16" transform="translate(233,249)"/>
<path d="M0 0 C2.475 0.99 2.475 0.99 5 2 C4.67 3.32 4.34 4.64 4 6 C2.68 5.34 1.36 4.68 0 4 C0 2.68 0 1.36 0 0 Z M-2 5 C-1.01 5.33 -0.02 5.66 1 6 C0.01 6.33 -0.98 6.66 -2 7 C-2 6.34 -2 5.68 -2 5 Z " fill="#84BF8A" transform="translate(499,472)"/>
<path d="M0 0 C0.99 0.495 0.99 0.495 2 1 C2 1.66 2 2.32 2 3 C3.2375 3.99 3.2375 3.99 4.5 5 C5.7375 5.99 5.7375 5.99 7 7 C7 7.66 7 8.32 7 9 C7.66 9 8.32 9 9 9 C8.67 9.66 8.34 10.32 8 11 C6.65499045 9.93119777 5.32428562 8.84437492 4 7.75 C3.2575 7.14671875 2.515 6.5434375 1.75 5.921875 C0 4 0 4 0 0 Z " fill="#0C210D" transform="translate(434,401)"/>
<path d="M0 0 C1 2 1 2 0.8125 4 C0 6 0 6 -1.875 7.3125 C-4 8 -4 8 -7 7 C-4.69 4.69 -2.38 2.38 0 0 Z " fill="#203C23" transform="translate(537,488)"/>
<path d="M0 0 C1 2 1 2 0.8125 4 C0 6 0 6 -1.875 7.3125 C-4 8 -4 8 -7 7 C-4.69 4.69 -2.38 2.38 0 0 Z " fill="#203C23" transform="translate(553,472)"/>
<path d="M0 0 C1 2 1 2 0.8125 4 C0 6 0 6 -1.875 7.3125 C-4 8 -4 8 -7 7 C-4.69 4.69 -2.38 2.38 0 0 Z " fill="#203C23" transform="translate(569,456)"/>
<path d="M0 0 C1 2 1 2 0.8125 4 C0 6 0 6 -1.875 7.3125 C-4 8 -4 8 -7 7 C-4.69 4.69 -2.38 2.38 0 0 Z " fill="#203C23" transform="translate(585,440)"/>
<path d="M0 0 C1 2 1 2 0.8125 4 C0 6 0 6 -1.875 7.3125 C-4 8 -4 8 -7 7 C-4.69 4.69 -2.38 2.38 0 0 Z " fill="#203C23" transform="translate(601,424)"/>
<path d="M0 0 C1 2 1 2 0.8125 4 C0 6 0 6 -1.875 7.3125 C-4 8 -4 8 -7 7 C-4.69 4.69 -2.38 2.38 0 0 Z " fill="#203C23" transform="translate(617,408)"/>
<path d="M0 0 C1 2 1 2 0.8125 4 C0 6 0 6 -1.875 7.3125 C-4 8 -4 8 -7 7 C-4.69 4.69 -2.38 2.38 0 0 Z " fill="#203C23" transform="translate(633,392)"/>
<path d="M0 0 C1 2 1 2 0.8125 4 C0 6 0 6 -1.875 7.3125 C-4 8 -4 8 -7 7 C-4.69 4.69 -2.38 2.38 0 0 Z " fill="#203C23" transform="translate(649,376)"/>
<path d="M0 0 C1 2 1 2 0.8125 4 C0 6 0 6 -1.875 7.3125 C-4 8 -4 8 -7 7 C-4.69 4.69 -2.38 2.38 0 0 Z " fill="#203C23" transform="translate(665,360)"/>
<path d="M0 0 C1 2 1 2 0.8125 4 C0 6 0 6 -1.875 7.3125 C-4 8 -4 8 -7 7 C-4.69 4.69 -2.38 2.38 0 0 Z " fill="#203C23" transform="translate(681,344)"/>
<path d="M0 0 C1 2 1 2 0.8125 4 C0 6 0 6 -1.875 7.3125 C-4 8 -4 8 -7 7 C-4.69 4.69 -2.38 2.38 0 0 Z " fill="#203C23" transform="translate(697,328)"/>
<path d="M0 0 C1 2 1 2 0.8125 4 C0 6 0 6 -1.875 7.3125 C-4 8 -4 8 -7 7 C-4.69 4.69 -2.38 2.38 0 0 Z " fill="#203C23" transform="translate(713,312)"/>
<path d="M0 0 C1 2 1 2 0.8125 4 C0 6 0 6 -1.875 7.3125 C-4 8 -4 8 -7 7 C-4.69 4.69 -2.38 2.38 0 0 Z " fill="#203C23" transform="translate(729,296)"/>
<path d="M0 0 C1 2 1 2 0.8125 4 C0 6 0 6 -1.875 7.3125 C-4 8 -4 8 -7 7 C-4.69 4.69 -2.38 2.38 0 0 Z " fill="#203C23" transform="translate(745,280)"/>
<path d="M0 0 C1 2 1 2 0.8125 4 C0 6 0 6 -1.875 7.3125 C-4 8 -4 8 -7 7 C-4.69 4.69 -2.38 2.38 0 0 Z " fill="#203C23" transform="translate(761,264)"/>
<path d="M0 0 C0.99 0 1.98 0 3 0 C3 1.98 3 3.96 3 6 C1.35 6.66 -0.3 7.32 -2 8 C-1.34 5.36 -0.68 2.72 0 0 Z " fill="#1D1D0F" transform="translate(1222,1666)"/>
<path d="M0 0 C1.32 0 2.64 0 4 0 C4 0.66 4 1.32 4 2 C4.66 2 5.32 2 6 2 C7.625 4 7.625 4 9 6 C8.34 6.66 7.68 7.32 7 8 C4.35247996 5.42215154 2.05567935 3.08351902 0 0 Z " fill="#1C361B" transform="translate(402,373)"/>
<path d="M0 0 C1.32 0 2.64 0 4 0 C4 0.66 4 1.32 4 2 C4.66 2 5.32 2 6 2 C6.66 3.98 7.32 5.96 8 8 C6.85073734 7.04578192 5.70569459 6.08647955 4.5625 5.125 C3.92441406 4.59132813 3.28632813 4.05765625 2.62890625 3.5078125 C1 2 1 2 0 0 Z " fill="#1C361B" transform="translate(370,341)"/>
<path d="M0 0 C2 0 2 0 4.5 2.4375 C5.325 3.283125 6.15 4.12875 7 5 C7.66 5.33 8.32 5.66 9 6 C9 6.66 9 7.32 9 8 C5.08158173 6.69386058 2.67359191 5.16870152 0 2 C0 1.34 0 0.68 0 0 Z " fill="#86BD88" transform="translate(451,463)"/>
<path d="M0 0 C1.14926266 0.95421808 2.29430541 1.91352045 3.4375 2.875 C4.07558594 3.40867187 4.71367187 3.94234375 5.37109375 4.4921875 C7 6 7 6 8 8 C6.68 8 5.36 8 4 8 C0 3.88888889 0 3.88888889 0 0 Z " fill="#77A777" transform="translate(486,457)"/>
<path d="M0 0 C1.14926266 0.95421808 2.29430541 1.91352045 3.4375 2.875 C4.07558594 3.40867187 4.71367187 3.94234375 5.37109375 4.4921875 C7 6 7 6 8 8 C6.68 8 5.36 8 4 8 C0 3.88888889 0 3.88888889 0 0 Z " fill="#77A777" transform="translate(470,441)"/>
<path d="M0 0 C0.66 0.33 1.32 0.66 2 1 C2 1.66 2 2.32 2 3 C3.32 3.33 4.64 3.66 6 4 C5.67 4.99 5.34 5.98 5 7 C2.69 5.35 0.38 3.7 -2 2 C-1.34 1.34 -0.68 0.68 0 0 Z " fill="#7AB07C" transform="translate(426,437)"/>
<path d="M0 0 C1.14926266 0.95421808 2.29430541 1.91352045 3.4375 2.875 C4.07558594 3.40867187 4.71367187 3.94234375 5.37109375 4.4921875 C7 6 7 6 8 8 C6.68 8 5.36 8 4 8 C0 3.88888889 0 3.88888889 0 0 Z " fill="#77A777" transform="translate(454,425)"/>
<path d="M0 0 C1.14926266 0.95421808 2.29430541 1.91352045 3.4375 2.875 C4.07558594 3.40867187 4.71367187 3.94234375 5.37109375 4.4921875 C7 6 7 6 8 8 C6.68 8 5.36 8 4 8 C0 3.88888889 0 3.88888889 0 0 Z " fill="#77A777" transform="translate(422,393)"/>
<path d="M0 0 C2.64752004 2.57784846 4.94432065 4.91648098 7 8 C6.34 8.66 5.68 9.32 5 10 C4.54625 9.195625 4.0925 8.39125 3.625 7.5625 C2.25274335 4.91143428 2.25274335 4.91143428 0 4 C0 2.68 0 1.36 0 0 Z " fill="#7FB27E" transform="translate(406,377)"/>
<path d="M0 0 C3.24271506 0.5590888 4.93057424 1.4132178 7 4 C7 4.66 7 5.32 7 6 C6.34 6 5.68 6 5 6 C5 5.34 5 4.68 5 4 C3.35 3.67 1.7 3.34 0 3 C0 2.01 0 1.02 0 0 Z " fill="#83BE83" transform="translate(391,365)"/>
<path d="M0 0 C1.32 0 2.64 0 4 0 C4 0.66 4 1.32 4 2 C4.66 2 5.32 2 6 2 C6.66 3.98 7.32 5.96 8 8 C6.85073734 7.04578192 5.70569459 6.08647955 4.5625 5.125 C3.92441406 4.59132813 3.28632813 4.05765625 2.62890625 3.5078125 C1 2 1 2 0 0 Z " fill="#1E351D" transform="translate(362,333)"/>
<path d="M0 0 C1.32 0 2.64 0 4 0 C4 0.66 4 1.32 4 2 C4.66 2 5.32 2 6 2 C6.66 3.98 7.32 5.96 8 8 C6.85073734 7.04578192 5.70569459 6.08647955 4.5625 5.125 C3.92441406 4.59132813 3.28632813 4.05765625 2.62890625 3.5078125 C1 2 1 2 0 0 Z " fill="#1F351B" transform="translate(354,325)"/>
<path d="M0 0 C2.475 0.495 2.475 0.495 5 1 C4.67 2.32 4.34 3.64 4 5 C3.01 5 2.02 5 1 5 C0.67 3.35 0.34 1.7 0 0 Z " fill="#171D08" transform="translate(1449,1674)"/>
<path d="M0 0 C2 0 2 0 4.5 2.3125 C7 5 7 5 9 8 C5.08158173 6.69386058 2.67359191 5.16870152 0 2 C0 1.34 0 0.68 0 0 Z " fill="#87BB8C" transform="translate(483,495)"/>
<path d="M0 0 C0.66 0.33 1.32 0.66 2 1 C1.67 2.65 1.34 4.3 1 6 C-0.32 5.67 -1.64 5.34 -3 5 C-1.125 1.125 -1.125 1.125 0 0 Z " fill="#84BC85" transform="translate(517,466)"/>
<path d="M0 0 C0.66 0.33 1.32 0.66 2 1 C1.67 2.65 1.34 4.3 1 6 C-0.32 5.67 -1.64 5.34 -3 5 C-1.125 1.125 -1.125 1.125 0 0 Z " fill="#84BC85" transform="translate(533,450)"/>
<path d="M0 0 C0.66 0.33 1.32 0.66 2 1 C1.67 2.65 1.34 4.3 1 6 C-0.32 5.67 -1.64 5.34 -3 5 C-1.125 1.125 -1.125 1.125 0 0 Z " fill="#84BC85" transform="translate(549,434)"/>
<path d="M0 0 C3 0 3 0 5.6875 2.3125 C8 5 8 5 8 8 C6.66372225 6.85760183 5.33104612 5.71098945 4 4.5625 C3.2575 3.92441406 2.515 3.28632813 1.75 2.62890625 C1.1725 2.09136719 0.595 1.55382812 0 1 C0 0.67 0 0.34 0 0 Z " fill="#84BA86" transform="translate(402,415)"/>
<path d="M0 0 C0.66 0.33 1.32 0.66 2 1 C1.67 2.65 1.34 4.3 1 6 C-0.32 5.67 -1.64 5.34 -3 5 C-1.125 1.125 -1.125 1.125 0 0 Z " fill="#84BC85" transform="translate(581,402)"/>
<path d="M0 0 C1.32 0.33 2.64 0.66 4 1 C4 2.32 4 3.64 4 5 C2.68 5 1.36 5 0 5 C0 3.35 0 1.7 0 0 Z " fill="#24151E" transform="translate(1682,384)"/>
<path d="M0 0 C0.66 0 1.32 0 2 0 C2 2.64 2 5.28 2 8 C1.01 8 0.02 8 -1 8 C-1.04241723 5.66705225 -1.04092937 3.33297433 -1 1 C-0.67 0.67 -0.34 0.34 0 0 Z " fill="#101D14" transform="translate(1688,384)"/>
<path d="M0 0 C0.66 0.33 1.32 0.66 2 1 C1.67 2.65 1.34 4.3 1 6 C-0.32 5.67 -1.64 5.34 -3 5 C-1.125 1.125 -1.125 1.125 0 0 Z " fill="#84BC85" transform="translate(613,370)"/>
<path d="M0 0 C0.66 0.33 1.32 0.66 2 1 C1.67 2.65 1.34 4.3 1 6 C-0.32 5.67 -1.64 5.34 -3 5 C-1.125 1.125 -1.125 1.125 0 0 Z " fill="#84BC85" transform="translate(629,354)"/>
<path d="M0 0 C0.66 0.33 1.32 0.66 2 1 C1.67 2.65 1.34 4.3 1 6 C-0.32 5.67 -1.64 5.34 -3 5 C-1.125 1.125 -1.125 1.125 0 0 Z " fill="#84BC85" transform="translate(661,322)"/>
<path d="M0 0 C0.66 0.33 1.32 0.66 2 1 C1.67 2.65 1.34 4.3 1 6 C-0.32 5.67 -1.64 5.34 -3 5 C-1.125 1.125 -1.125 1.125 0 0 Z " fill="#84BC85" transform="translate(677,306)"/>
<path d="M0 0 C0.66 0.33 1.32 0.66 2 1 C1.67 2.65 1.34 4.3 1 6 C-0.32 5.67 -1.64 5.34 -3 5 C-1.125 1.125 -1.125 1.125 0 0 Z " fill="#84BC85" transform="translate(693,290)"/>
<path d="M0 0 C1.98 0.99 1.98 0.99 4 2 C4 3.65 4 5.3 4 7 C2 5.75 2 5.75 0 4 C0 2.68 0 1.36 0 0 Z " fill="#112312" transform="translate(452,419)"/>
<path d="M0 0 C1.32 0 2.64 0 4 0 C4 0.99 4 1.98 4 3 C4.99 3.33 5.98 3.66 7 4 C7.6875 6.0625 7.6875 6.0625 8 8 C6.85073734 7.04578192 5.70569459 6.08647955 4.5625 5.125 C3.92441406 4.59132813 3.28632813 4.05765625 2.62890625 3.5078125 C1 2 1 2 0 0 Z " fill="#213B20" transform="translate(394,365)"/>
<path d="M0 0 C0.33 0.99 0.66 1.98 1 3 C-1.64 4.98 -4.28 6.96 -7 9 C-5.04783565 5.09567131 -3.12613393 2.96160056 0 0 Z " fill="#86B787" transform="translate(649,334)"/>
<path d="M0 0 C0.99 0.33 1.98 0.66 3 1 C1.35 2.98 -0.3 4.96 -2 7 C-2.6875 5.1875 -2.6875 5.1875 -3 3 C-1.5625 1.25 -1.5625 1.25 0 0 Z " fill="#1C371E" transform="translate(651,328)"/>
<path d="M0 0 C1.24546405 2.49092811 0.7767578 3.41080733 0 6 C-1.65 6 -3.3 6 -5 6 C-3.35 4.02 -1.7 2.04 0 0 Z " fill="#253827" transform="translate(545,480)"/>
<path d="M0 0 C1.24546405 2.49092811 0.7767578 3.41080733 0 6 C-1.65 6 -3.3 6 -5 6 C-3.35 4.02 -1.7 2.04 0 0 Z " fill="#253827" transform="translate(561,464)"/>
<path d="M0 0 C1.24546405 2.49092811 0.7767578 3.41080733 0 6 C-1.65 6 -3.3 6 -5 6 C-3.35 4.02 -1.7 2.04 0 0 Z " fill="#253827" transform="translate(577,448)"/>
<path d="M0 0 C1.24546405 2.49092811 0.7767578 3.41080733 0 6 C-1.65 6 -3.3 6 -5 6 C-3.35 4.02 -1.7 2.04 0 0 Z " fill="#253827" transform="translate(593,432)"/>
<path d="M0 0 C2 0 2 0 3.5 1.25 C5.06011813 3.07013782 6.0226597 4.81977934 7 7 C4.13302508 5.71480435 2.02392288 4.42870746 0 2 C0 1.34 0 0.68 0 0 Z " fill="#85BB86" transform="translate(419,431)"/>
<path d="M0 0 C1.24546405 2.49092811 0.7767578 3.41080733 0 6 C-1.65 6 -3.3 6 -5 6 C-3.35 4.02 -1.7 2.04 0 0 Z " fill="#253827" transform="translate(609,416)"/>
<path d="M0 0 C1.24546405 2.49092811 0.7767578 3.41080733 0 6 C-1.65 6 -3.3 6 -5 6 C-3.35 4.02 -1.7 2.04 0 0 Z " fill="#253827" transform="translate(625,400)"/>
<path d="M0 0 C2.5 2.3125 2.5 2.3125 5 5 C5 5.99 5 6.98 5 8 C2.69 6.02 0.38 4.04 -2 2 C-1.34 1.34 -0.68 0.68 0 0 Z " fill="#7DAD7F" transform="translate(378,389)"/>
<path d="M0 0 C1.24546405 2.49092811 0.7767578 3.41080733 0 6 C-1.65 6 -3.3 6 -5 6 C-3.35 4.02 -1.7 2.04 0 0 Z " fill="#253827" transform="translate(641,384)"/>
<path d="M0 0 C2 0 2 0 3.5 1.25 C5.06011813 3.07013782 6.0226597 4.81977934 7 7 C4.13302508 5.71480435 2.02392288 4.42870746 0 2 C0 1.34 0 0.68 0 0 Z " fill="#85BB86" transform="translate(371,383)"/>
<path d="M0 0 C1.24546405 2.49092811 0.7767578 3.41080733 0 6 C-1.65 6 -3.3 6 -5 6 C-3.35 4.02 -1.7 2.04 0 0 Z " fill="#253827" transform="translate(657,368)"/>
<path d="M0 0 C1.24546405 2.49092811 0.7767578 3.41080733 0 6 C-1.65 6 -3.3 6 -5 6 C-3.35 4.02 -1.7 2.04 0 0 Z " fill="#253827" transform="translate(673,352)"/>
<path d="M0 0 C1.24546405 2.49092811 0.7767578 3.41080733 0 6 C-1.65 6 -3.3 6 -5 6 C-3.35 4.02 -1.7 2.04 0 0 Z " fill="#253827" transform="translate(689,336)"/>
<path d="M0 0 C2.5 2.3125 2.5 2.3125 5 5 C5 5.99 5 6.98 5 8 C2.69 6.02 0.38 4.04 -2 2 C-1.34 1.34 -0.68 0.68 0 0 Z " fill="#7DAD7F" transform="translate(314,325)"/>
<path d="M0 0 C1.24546405 2.49092811 0.7767578 3.41080733 0 6 C-1.65 6 -3.3 6 -5 6 C-3.35 4.02 -1.7 2.04 0 0 Z " fill="#253827" transform="translate(705,320)"/>
<path d="M0 0 C2 0 2 0 3.5 1.25 C5.06011813 3.07013782 6.0226597 4.81977934 7 7 C4.13302508 5.71480435 2.02392288 4.42870746 0 2 C0 1.34 0 0.68 0 0 Z " fill="#85BB86" transform="translate(307,319)"/>
<path d="M0 0 C1.24546405 2.49092811 0.7767578 3.41080733 0 6 C-1.65 6 -3.3 6 -5 6 C-3.35 4.02 -1.7 2.04 0 0 Z " fill="#253827" transform="translate(721,304)"/>
<path d="M0 0 C1.24546405 2.49092811 0.7767578 3.41080733 0 6 C-1.65 6 -3.3 6 -5 6 C-3.35 4.02 -1.7 2.04 0 0 Z " fill="#253827" transform="translate(737,288)"/>
<path d="M0 0 C1.24546405 2.49092811 0.7767578 3.41080733 0 6 C-1.65 6 -3.3 6 -5 6 C-3.35 4.02 -1.7 2.04 0 0 Z " fill="#253827" transform="translate(753,272)"/>
<path d="M0 0 C1.24546405 2.49092811 0.7767578 3.41080733 0 6 C-1.65 6 -3.3 6 -5 6 C-3.35 4.02 -1.7 2.04 0 0 Z " fill="#253827" transform="translate(769,256)"/>
</svg>
